/* XPM */
static char *result[] = {
/* columns rows colors chars-per-pixel */
"50 50 211 2 ",
"   c #5A0301",
".  c #650100",
"X  c #7E0800",
"o  c #63120E",
"O  c #771607",
"+  c #681C16",
"@  c #6E251D",
"#  c #6F281F",
"$  c #7D2A1C",
"%  c #702820",
"&  c #7C2920",
"*  c #9B1F0C",
"=  c #831A03",
"-  c #A71D04",
";  c #992A0B",
":  c #992705",
">  c #822E1F",
",  c #9F2013",
"<  c #A52B05",
"1  c #B52809",
"2  c #B23407",
"3  c #A63417",
"4  c #8D2425",
"5  c #912A2A",
"6  c #9C2D26",
"7  c #893024",
"8  c #9B332B",
"9  c #9F3C30",
"0  c #A02F28",
"q  c #A63A2A",
"w  c #A03D32",
"e  c #B23723",
"r  c #C82F07",
"t  c #C93407",
"y  c #C9390A",
"u  c #D53407",
"i  c #D73A07",
"p  c #CC3D10",
"a  c #D33B11",
"s  c #A5471A",
"d  c #8D403E",
"f  c #905135",
"g  c #BF4A2B",
"h  c #B95924",
"j  c #A7493A",
"k  c #BB4330",
"l  c #B5543D",
"z  c #A76229",
"x  c #BC6831",
"c  c #DB4308",
"v  c #C94818",
"b  c #DD4415",
"n  c #C9511D",
"m  c #E54209",
"M  c #E94309",
"N  c #ED4D07",
"B  c #F3470A",
"V  c #F64B0B",
"C  c #FC4D0B",
"Z  c #EF5E0F",
"A  c #F2550B",
"S  c #F05B0E",
"D  c #ED5513",
"F  c #E35217",
"G  c #FC5514",
"H  c #F95718",
"J  c #EE6B0E",
"K  c #F76F0F",
"L  c #E66417",
"P  c #F76617",
"I  c #EE711E",
"U  c #FC7B1E",
"Y  c #F87C17",
"T  c #DC4E20",
"R  c #CF522F",
"E  c #D05330",
"W  c #C45137",
"Q  c #E95928",
"!  c #FE5F24",
"~  c #DA672A",
"^  c #D97120",
"/  c #DA6439",
"(  c #DB6D3A",
")  c #DB7438",
"_  c #C36522",
"`  c #EC632A",
"'  c #F06F26",
"]  c #FC652C",
"[  c #F86326",
"{  c #E2673B",
"}  c #EC6C37",
"|  c #F36B34",
" . c #FC6B33",
".. c #FB6E3A",
"X. c #E57637",
"o. c #F9743C",
"O. c #F3793B",
"+. c #F47329",
"@. c #9C5450",
"#. c #A8584E",
"$. c #C25F4C",
"%. c #C86D49",
"&. c #D96545",
"*. c #CC764E",
"=. c #E76E46",
"-. c #E87D49",
";. c #F67E4B",
":. c #FB7B48",
">. c #FC821E",
",. c #F2911B",
"<. c #EC8D19",
"1. c #D18A3D",
"2. c #FA9C20",
"3. c #F0803E",
"4. c #FE9F3A",
"5. c #D1A52F",
"6. c #F0A42D",
"7. c #E9BD26",
"8. c #F3B928",
"9. c #ECA539",
"0. c #F8A838",
"q. c #E8B934",
"w. c #FCBE3A",
"e. c #F6B937",
"r. c #F7C92C",
"t. c #FAD12F",
"y. c #F7DA28",
"u. c #FCC43A",
"i. c #F6C638",
"p. c #FCDB3B",
"a. c #FAD83A",
"s. c #FAE52E",
"d. c #FAE631",
"f. c #FBEC36",
"g. c #FBED3A",
"h. c #FBE53A",
"j. c #FCF23D",
"k. c #B18342",
"l. c #BD9060",
"z. c #DE8857",
"x. c #DE8644",
"c. c #E68844",
"v. c #F68744",
"b. c #FA9743",
"n. c #EC8C54",
"m. c #EB9556",
"M. c #FC905A",
"N. c #FA8E57",
"B. c #DDAB5D",
"V. c #F4A749",
"C. c #FBB644",
"Z. c #E6B94A",
"A. c #D09A63",
"S. c #D9B476",
"D. c #F5A06E",
"F. c #FDB265",
"G. c #FAAE7C",
"H. c #FBB873",
"J. c #FDC945",
"K. c #FBC645",
"L. c #FED243",
"P. c #FDCF59",
"I. c #FDD554",
"U. c #FAD95B",
"Y. c #FDE641",
"T. c #FCEC43",
"R. c #FDF443",
"E. c #FDF54C",
"W. c #FBE654",
"Q. c #FDF652",
"!. c #FDF55C",
"~. c #FEF855",
"^. c #FECC61",
"/. c #FED66A",
"(. c #EED077",
"). c #F1D675",
"_. c #FCEC6B",
"`. c #FBE867",
"'. c #FDF664",
"]. c #FEF866",
"[. c #FDF56B",
"{. c #FDF86B",
"}. c #FEE373",
"|. c #FCEF7E",
" X c #FBEB75",
".X c #FDF773",
"XX c #FEF873",
"oX c #FEF87C",
"OX c #FDF37B",
"+X c #DB9E94",
"@X c #C78E8C",
"#X c #F9D884",
"$X c #FBEE86",
"%X c #FDF484",
"&X c #FEF986",
"*X c #FEF68B",
"=X c #FEF98B",
"-X c #FDE298",
";X c #FEF992",
":X c #FEFA9C",
">X c #FEE7AA",
",X c #FEF4A3",
"<X c #FEFBA2",
"1X c #FEFBBB",
"2X c #FEF7B5",
"3X c #FEF9C6",
"4X c #FEF7D9",
"5X c #FEF9E6",
"6X c #FEFBEA",
"7X c #FEFBF2",
"8X c None",
/* pixels */
"8X8X8X8X8X8X8X8X8X8X8X8X8X8X8X8X8X8X8X8X8X8X8X8X8X8X8X8X8X8X8X8X8X8X8X8X8X8X8X8X8X8X8X8X8X8X8X8X8X8X",
"8X8X8X8X8X8X8X8X8X8X8X8X8X8X8X8X8X8X8X8X8X8X8X8X8X8X8X8X8X8X8X8X8X8X8X8X8X8X8X8X8X8X8X8X8X8X8X8X8X8X",
"8X8X8X8X8X8X8X8X8X8X8X8X8X8X8X8X8X8X8X8X8X8X8X8X8X8X8X8X8X8X8X8X8X8X8X8X8X8X8X8X8X8X8X8X8X8X8X8X8X8X",
"8X8X8X8X8X8X8X8X8X8X8X8X8X8X8X8X8X8X8X8X8X8X8X8X8X8X8X8X8X8X8X8X8X8X8X8X8X8X8X8X8X8X8X8X8X8X8X8X8X8X",
"8X8X8X8X8X8X8X8X8X8X8X8X8X8X8X8X8X8X8X8X8X8X8X8X8X8X8X8X8X8X8X8X8X8X8X8X8X8X8X8X8X8X8X8X8X8X8X8X8X8X",
"8X8X8X8X8X8X8X8X8X8X8X8X8X8X8X8X8X8X8X8X8X8X8X8X8X8X8X8X8X8X8X8X8X8X8X8X8X8X8X8X8X8X8X8X8X8X8X8X8X8X",
"8X8X8X8X8X8X8X8X8X8X8X8X8X8X8X8X8X8X8X8X8X8X8X8X8X8X8X8X8X8X8X8X8X8X8X8X8X8X8X8X8X8X8X8X8X8X8X8X8X8X",
"8X8X8X8X8X8X8X8X8X8X8X8X8X8X8X8X8X8X8X8X8X8X8X8X8X8X8X8X8X8X8X8X8X8X8X8X8X8X8X8X8X8X8X8X8X8X8X8X8X8X",
"8X8X8X8X8X8X8X8X8X8X8X8X8X8X8X8X8Xd.s.f.8X8X8X8X8X8XG.G.8X8X8X8X8X8X8X8X8X8X8X8X8X8X8X8X8X8X8X8X8X8X",
"8X8X8X8X8X8X8X8X8X8X8X8X8X8X8X8X8Xf.d.j.j.8X8X8X[ N.G.G.8X8X8X8X8X8X8X8X8X8X8X8X8X8X8X8X8X8X8X8X8X8X",
"8X8X8X8X8X8X8X8X8X8X8X8X8X8X8X8X8Xf.8Xj.j.t.K L b | N.D.8X8X8X8X8X8X8X8X8X8X8X8X8X8X8X8X8X8X8X8X8X8X",
"8X8X8X8X8X8X8X8X8X8X8X8X8X8X8X8X8Xf.j.Q.].h.V.5.; , R ;.8X8X8X8X8X8X8X8X8X8X8X8X8X8X8X8X8X8X8X8X8X8X",
"8X8X8X8X8X8X8X8X8X8X8X8X8X8X8X8X8Xf.E.oX;XQ.Z.q.h 4 6 / 3.8X8Xj.d.8X8X8X8X8X8X8X8X8X8X8X8X8X8X8X8X8X",
"8X8X8X8X8X8X8X8X8X8X8X8X8X8X8X8X8Xj.].:X;XE.r.6.~ 6 5 8 / e.8XE.g.s.8X8X8X8X8X8X8X8X8X8X8X8X8X8X8X8X",
"8X8X8X8X8X8X8X8X8X8X8X8X8X8X8X8Xj.R.oX<X=XE.i.~ ~ 8 6 5 g O.K.%X'.d.8X8X8X8X8X8X8X8X8X8X8X8X8X8X8X8X",
"8X8X8X8X8X8X8X8X8X8X8X8X8X8X8X8Xj.E.=X:X.XR.0.&.q.x l w q Q } (.[.g.8X8X8X8X8X8X8X8X8X8X8X8X8X8X8X8X",
"8X8X8X8X8X8X8X8X8X8X8X8X8X8X8X8Xj.E.=X:XXXg.J.K.j.9.$.*.l e a 3.`.T.8X8X8X8X8X8X8X8X8X8X8X8X8X8X8X8X",
"8X8X8X8X8X8X8X8X8X8X8X8X8X8X8X8Xj.R.&X<X%XT.j.E.Q.C.&.-.-.%.r G C.g.8X8X8X8X8X8X8X8X8X8X8X8X8X8X8X8X",
"8X8X8X8X8X8X8X8X8X8X8X8X8X8X8X8Xf.R.XX1X1X|.[.&X/.V.z.;.m.x.3 u Y y.8X8X8X8X8X8X8X8X8X8X8X8X8X8X8X8X",
"8X8X8X8X8X8X8X8X8X8X8X8X8X8X Xd.j.R.{.<X3X-X,X;XJ.I m.n.m.n.g 1 N 8X8X8X8X8X8X8X8X8X8X8X8X8X8X8X8X8X",
"8X8X8X8X8X8X8X8X8X8X8X8X8X8X=Xp.h.'.&X;X<X4X5X2XP.P n.:.v.O.D t i 8X8X8X8X8X8X8X8X8X8X8X8X8X8X8X8X8X",
"8X8X8X8X8X8X8X8X8X8X8X8Xi.).#XU.u.L.W.!.U.#X-X#Xv.` ;. .| [ C C Z 8.8X8X8X8X8X8X8X8X8X8X8X8X8X8X8X8X",
"8X8X8X8X8X8X8X8X8X8X8X8X8X(._ B.1.9.e.u.u.e.0.U D O.:. .] G C Y <.8.8X8X8X8X8X8X8X8X8X8X8X8X8X8X8X8X",
"8X8X8X8X8X8X8X8X8X8X8X8X%X$X8XA.j q ( +.P P C D } :.o.O.Q C C ,.r.J 7.7.8X8X8X8X8X8X8X8X8X8X8X8X8X8X",
"8X8X8X8X8X8X8X8X8X8X8X8X|._.8XS.#.e W / .. .} ;.:...{ ` n 1 u 6.g.,.t.f.8X8X8X8X8X8X8X8X8X8X8X8X8X8X",
"8X8X8X8X8X8X8X8X8X8X8X8X`.%X8Xl.#.&.E =.:.=.#.n.o. .] b 1 a Z p.!.d.f.j.8X8X8X8X8X8X8X8X8X8X8X8X8X8X",
"8X8X8X8X8X8X8X8X8X8X8X8X8X|._.f @.+X&. .! Q R } | ] H C B C 2.Q.XXE.E.j.8X8X8X8X8X8X8X8X8X8X8X8X8X8X",
"8X8X8X8X8X8X8X8X8X8X8X8Xy.t.T.k.d @X%.X.G G ! b } H u c A >.p.].=X].XXE.8X8X8X8X8X8X8X8X8X8X8X8X8X8X",
"8X8X8X8X8X8X8X8X8X8X8X8Xf.d.E.5.7 4 q ) P C B M F p < m U L.'.:X1X<XoXR.8X8X8X8X8X8X8X8X8X8X8X8X8X8X",
"8X8X8X8X8X8X8X8X8X8X8X8Xj.j.'.W.5.h g x.I C M c r - c P P.,X3X6X4X:X!.j.8Xs.8X8X8X8X8X8X8X8X8X8X8X8X",
"8X8X8X8X8X8X8X8X8X8X8X8XE..X*X;XoXP.I x.3.A y 2 t m N b.4X7X6X3X&X!.j.8X8X8X8X8X8X8X8X8X8X8X8X8X8X8X",
"8X8X8X8X8X8X8X8X8X8X8X8Xh._.;X3X3X>Xb.^ 3.n < < y V A F.6X7X3X&XQ.R.f.8X8X8X8X8X8X8X8X8X8X8X8X8X8X8X",
"8X8X8X8X8X8X8X8X8X8X8X8X8Xt.W.*X2X4XG.L X.s ; : 2 r M 4.>X5X1X=X{.j.8X8X8X8X8X8X8X8X8X8X8X8X8X8X8X8X",
"8X8X8X8X8X8X8X8X8X8X8X8X8X8Xt.I.}./.9.n 3 ; : O O = u K w./.}.[.R.h.8X8X8X8X8X8X8X8X8X8X8X8X8X8X8X8X",
"8X8X8X8X8X8X8X8X8X8X8X8X8X8X8XJ.I.u.z $ O O O     . * p ^ 9.J.I.J.p.8X8X8X8X8X8X8X8X8X8X8X8X8X8X8X8X",
"8X8X8X8X8X8X8X8X8X8X8X8X8X8X8X8X8X8X8X# # @ @ + o o & 7 7 z q.u.u.8X8X8X8X8X8X8X8X8X8X8X8X8X8X8X8X8X",
"8X8X8X8X8X8X8X8X8X8X8X8X8X8X8X8X8X8X8X% % % % % @ @ # # 8X8X8X8X8X8X8X8X8X8X8X8X8X8X8X8X8X8X8X8X8X8X",
"8X8X8X8X8X8X8X8X8X8X8X8X8X8X8X8X8X8X8X8X8X8X8X8X8X8X8X% 8X8X8X8X8X8X8X8X8X8X8X8X8X8X8X8X8X8X8X8X8X8X",
"8X8X8X8X8X8X8X8X8X8X8X8X8X8X8X8X8X8X8X8X8X8X8X8X8X8X8X% 8X8X8X8X8X8X8X8X8X8X8X8X8X8X8X8X8X8X8X8X8X8X",
"8X8X8X8X8X8X8X8X8X8X8X8X8X8X8X8X8X8X8X8X8X8X8X8X8X8X8X8X8X8X8X8X8X8X8X8X8X8X8X8X8X8X8X8X8X8X8X8X8X8X",
"8X8X8X8X8X8X8X8X8X8X8X8X8X8X8X8X8X8X8X8X8X8X8X8X8X8X8X8X8X8X8X8X8X8X8X8X8X8X8X8X8X8X8X8X8X8X8X8X8X8X",
"8X8X8X8X8X8X8X8X8X8X8X8X8X8X8X8X8X8X8X8X8X8X8X8X8X8X8X8X8X8X8X8X8X8X8X8X8X8X8X8X8X8X8X8X8X8X8X8X8X8X",
"8X8X8X8X8X8X8X8X8X8X8X8X8X8X8X8X8X8X8X8X8X8X8X8X8X8X8X8X8X8X8X8X8X8X8X8X8X8X8X8X8X8X8X8X8X8X8X8X8X8X",
"8X8X8X8X8X8X8X8X8X8X8X8X8X8X8X8X8X8X8X8X8X8X8X8X8X8X8X8X8X8X8X8X8X8X8X8X8X8X8X8X8X8X8X8X8X8X8X8X8X8X",
"8X8X8X8X8X8X8X8X8X8X8X8X8X8X8X8X8X8X8X8X8X8X8X8X8X8X8X8X8X8X8X8X8X8X8X8X8X8X8X8X8X8X8X8X8X8X8X8X8X8X",
"8X8X8X8X8X8X8X8X8X8X8X8X8X8X8X8X8X8X8X8X8X8X8X8X8X8X8X8X8X8X8X8X8X8X8X8X8X8X8X8X8X8X8X8X8X8X8X8X8X8X",
"8X8X8X8X8X8X8X8X8X8X8X8X8X8X8X8X8X8X8X8X8X8X8X8X8X8X8X8X8X8X8X8X8X8X8X8X8X8X8X8X8X8X8X8X8X8X8X8X8X8X",
"8X8X8X8X8X8X8X8X8X8X8X8X8X8X8X8X8X8X8X8X8X8X8X8X8X8X8X8X8X8X8X8X8X8X8X8X8X8X8X8X8X8X8X8X8X8X8X8X8X8X",
"8X8X8X8X8X8X8X8X8X8X8X8X8X8X8X8X8X8X8X8X8X8X8X8X8X8X8X8X8X8X8X8X8X8X8X8X8X8X8X8X8X8X8X8X8X8X8X8X8X8X",
"8X8X8X8X8X8X8X8X8X8X8X8X8X8X8X8X8X8X8X8X8X8X8X8X8X8X8X8X8X8X8X8X8X8X8X8X8X8X8X8X8X8X8X8X8X8X8X8X8X8X"
};
