/* XPM */
static char *result[] = {
/* columns rows colors chars-per-pixel */
"30 50 201 2 ",
"   c #181D19",
".  c #150F0A",
"X  c #1B201D",
"o  c #232115",
"O  c #1E2A26",
"+  c #1D3B37",
"@  c #212925",
"#  c #222E2A",
"$  c #2F2F2D",
"%  c #21312E",
"&  c #213D39",
"*  c #2B473F",
"=  c #52442A",
"-  c #775930",
";  c #666E39",
":  c #7E6335",
">  c #74723F",
",  c #1C4E4D",
"<  c #19504F",
"1  c #1D5A5A",
"2  c #1E5352",
"3  c #244C48",
"4  c #21524F",
"5  c #2D5249",
"6  c #37584A",
"7  c #215553",
"8  c #215956",
"9  c #2B5D55",
"0  c #215B59",
"q  c #22605E",
"w  c #29625D",
"e  c #3F6658",
"r  c #236463",
"t  c #266D6C",
"y  c #296B68",
"u  c #316F69",
"i  c #2B706E",
"p  c #25706F",
"a  c #287473",
"s  c #2B7C7C",
"d  c #297777",
"f  c #337976",
"g  c #367B76",
"h  c #43664B",
"j  c #566646",
"k  c #596B52",
"l  c #50715D",
"z  c #616545",
"x  c #696543",
"c  c #766941",
"v  c #7E6C41",
"b  c #727046",
"n  c #687759",
"m  c #777853",
"M  c #4B7A68",
"N  c #527C66",
"B  c #646860",
"V  c #87551A",
"C  c #975914",
"Z  c #9D560B",
"A  c #A54F03",
"S  c #A75102",
"D  c #B25A00",
"F  c #9B621B",
"G  c #A2620F",
"H  c #B56103",
"J  c #B96403",
"K  c #A7651A",
"L  c #BA7C19",
"P  c #8B5E2A",
"I  c #8D612C",
"U  c #96642A",
"Y  c #8C6A38",
"T  c #826838",
"R  c #9C6C32",
"E  c #916B35",
"W  c #8E7139",
"Q  c #86743E",
"!  c #9E7237",
"~  c #93733B",
"^  c #9C7C3E",
"/  c #AA6D23",
"(  c #A47234",
")  c #AC7637",
"_  c #AA7738",
"`  c #A47A3B",
"'  c #AD7C3D",
"]  c #B17D3C",
"[  c #B27A37",
"{  c #CC7C0B",
"}  c #C77407",
"|  c #826F41",
" . c #867645",
".. c #937B4B",
"X. c #8F7A54",
"o. c #AB7E40",
"O. c #33827E",
"+. c #39847D",
"@. c #75855B",
"#. c #4B8374",
"$. c #43867C",
"%. c #478579",
"&. c #568B78",
"*. c #6D8664",
"=. c #BB8239",
"-. c #D08F14",
";. c #D59919",
":. c #DA880B",
">. c #E08F0B",
",. c #E4940E",
"<. c #EB9B10",
"1. c #E9A416",
"2. c #F3A514",
"3. c #F2A915",
"4. c #FEAD14",
"5. c #F7AB1A",
"6. c #CF9236",
"7. c #E9A93B",
"8. c #9B8041",
"9. c #878558",
"0. c #988B59",
"q. c #AA8E46",
"w. c #A88744",
"e. c #B58241",
"r. c #BD8A43",
"t. c #B98846",
"y. c #AD9149",
"u. c #BC934F",
"i. c #A99559",
"p. c #BC9B56",
"a. c #BB9856",
"s. c #BCA35B",
"d. c #818078",
"f. c #809974",
"g. c #B49E62",
"h. c #A19B68",
"j. c #94A67B",
"k. c #9DAA7A",
"l. c #BBA571",
"z. c #C18B45",
"x. c #C6914A",
"c. c #CA944C",
"v. c #C19A56",
"b. c #D09B51",
"n. c #CEA55E",
"m. c #D6A55A",
"M. c #E5A845",
"N. c #E1AC5D",
"B. c #E4AD52",
"V. c #E5B057",
"C. c #C2A463",
"Z. c #C9AB64",
"A. c #D6AC62",
"S. c #DDB367",
"D. c #C9BD7A",
"F. c #D1BE77",
"G. c #CDAC73",
"H. c #E3AF60",
"J. c #E3B264",
"K. c #EDBB6A",
"L. c #EBB665",
"P. c #F1BD6B",
"I. c #CEC27B",
"U. c #D4C37B",
"Y. c #F6C26E",
"T. c #F9C46F",
"R. c #2D8383",
"E. c #2E8B8B",
"W. c #2E8887",
"Q. c #328583",
"!. c #328886",
"~. c #328D8C",
"^. c #3C8F8A",
"/. c #33908F",
"(. c #3C928D",
"). c #2F8F90",
"_. c #339191",
"`. c #418882",
"'. c #49978D",
"]. c #559C8D",
"[. c #5A9B8D",
"{. c #55948B",
"}. c #659F89",
"|. c #7BAB8D",
" X c #78A789",
".X c #67A394",
"XX c #8EB28D",
"oX c #99B88D",
"OX c #A7BD8E",
"+X c #B9BEB2",
"@X c #CBB080",
"#X c #C5BC9F",
"$X c #AAC08F",
"%X c #BEC084",
"&X c #DCC192",
"*X c #C1C185",
"=X c #F0CD8F",
"-X c #EEC887",
";X c #D7D2C0",
":X c #EAE7D2",
">X c None",
/* pixels */
">X>X>X>X>X>X>X>X>X>X>X>X>X>X>X>X>X>X>X>X>X>X>X>X>X>X>X>X>X>X",
">X!./.!.>X>X>X>X>X>X>X>X>X>X>X>X>X>X>X>X>X>X>X>X>XQ.!.>X>X>X",
">X~._._././.!.>X>X>X>X>X>X>X>X>X>X>X>X>X>X>X!.~._._._.Q.>X>X",
">X!.[.]._._._._.!.>X>X>X>X!.!.>X>X>X>X>X!._._._._.[.(.Q.>X>X",
">X!.OX|.).)._._.~.!.!.~./._._._.~.!.s !._._.).).(.OX.Xs >X>X",
">X+.oX[.~.].'.E.~.(._._._._._._._._.(.~.~.~.'.(./.oX|.a >X>X",
">Xr ^.^.^.OX}.E._._._._._._._._._._._._.~.!.XX XE.'.$.1 >X>X",
">X>Xr O.'.OX$.t !._._._._._._._._._._._.s a  XOX/.s r >X>X>X",
">X>X0 q i %.y 8 r s ~._._._._._././.R.t 0 q `.&.i 0 7 >X>X>X",
">X>X7 0 0 1 0 0 8 0 r a s R.W.R.s t q 0 0 0 r 1 0 0 >X>X>X>X",
">X>X>X0 0 8 8 0 0 0 0 8 0 r r 0 0 0 0 0 1 0 7 0 0 7 >X>X>X>X",
">X>X>X>X0 8 0 1 0 0 0 0 0 0 8 0 0 0 0 0 0 0 0 0 0 >X>X>X>X>X",
">X>X>X>X>X7 0 0 0 0 0 0 0 0 0 0 0 0 0 0 0 0 0 7 >X>X>X>X>X>X",
">X>X>X>X>X7 0 8 0 0 0 0 0 0 0 0 0 0 0 0 0 0 7 >X>X>X>X>X>X>X",
">X>X>X>X>X8 0 0 0 8 1 1 8 8 0 8 0 0 0 0 1 0 0 >X>X>X>X>X>X>X",
">X>X>X>X>X8 0 0 q r r y i a a p t r r 0 0 8 7 >X>X>X>X>X>X>X",
">X>X>X>X>X0 t a R.W.E._._._._._./.E.E.W.s t r 7 >X>X>X>X>X>X",
">X>X>X>X>Xy M N M {..X`.g %.`.g f ].{.#.#.M u 1 >X>X>X>X>X>X",
">X>X>X>X>X>XT E Y OX:XB o Y ` = # +X#X .Y T >X>X>X>X>X>X>X>X",
">X>X>X>X>X>XT ..( G.:Xd.. R z.= $ ;X&Xe.^ | >X>X>X>X>X>X>X>X",
">X>X>X>X>X>X>X| E x.-X@X- Z.K.X.X.=Xn.~  .n >X>X>X>X>X>X>X>X",
">X>X>X>X>X>X>Xl j | 0.A.P.Y.P.K.J.i...j M $.>X>X>X>X>X>X>X>X",
">X>X>X>X>X>Xg d 0 n 0.t.6.B.B.M.x.i.m 9 s ~.>X>X>X>X>X>X>X>X",
">X>X>X>X>X>Xf.f e v.P.M.2.5.5.2.7.P.n.k s ^.>X>X>X>X>X>X>X>X",
">X>X>X>X>X>XZ.*.j ] =.=.3.4.4.3.6.o.=.j Q.oX>X>X>X>X>X>X>X>X",
">X>X>X>X>X>Xn.i.Q ) R U { <.<.:.K R [ c @.I.>X>X>X>X>X>X>X>X",
">X>X>X>X>X>Xs.y.` ) : C } ,.,.{ Z - _ ( w.s.>X>X>X>X>X>X>X>X",
">X>X>X>X>X>Xq.W R ) 8.F H H H J C ^ _ ( >X>X>X>X>X>X>X>X>X>X",
">X>X>X>X>X>X>X- ( ` q.U A A S A K q.` _ P >X>X>X>X>X>X>X>X>X",
">X>X>X>X>X>X>X=.=.q.y.C.v.u.u.a.a.q.w.o.=.R >X>X>X>X>X>X>X>X",
">X>X>X>X>X>X' N.J.s.q.i.F.F.U.F.s.q.y.m.J.e.>X>X>X>X>X>X>X>X",
">X>X>X>X>X>Xr.P.K.i. .V K / / K V  .8.S.Y.x.U >X>X>X>X>X>X>X",
">X>X>X>X>XP z.Y.J.>X6 F ,.:.} D V 6 >XH.Y.c.R >X>X>X>X>X>X>X",
">X>X>X>X>Xe.x.Y.K.9.5 L 4.4.4.,.G 5 n K.T.b.e.>X>X>X>X>X>X>X",
">X>X>X>X>XK.L.Y.Y.S.b -.4.4.4.4.-.z A.T.Y.L.K.v.>X>X>X>X>X>X",
">X>X>X>X' N.N.P.P.n.Q 1.4.4.4.4.1.b p.P.Y.J.N.' >X>X>X>X>X>X",
">X>X>X>X>X[ z.m.z.; ; ;.1.3.3.1.;.j z t.b.x.] I >X>X>X>X>X>X",
">X>X>X>X>X>X_ [ R 6 w h j ; ; h h 9 9 ~ ] ) U >X>X>X>X>X>X>X",
">X>X>X>X>X>X>X .n r 1 1 1 < , 1 1 1 9 l  .E >X>X>X>X>X>X>X>X",
">X>X>X>X>X>X>X>X~.a 1 1 q 7 >X8 0 8 a ~.g >X>X>X>X>X>X>X>X>X",
">X>X>X>X>X>X>X>X>Xg 9 8 0 >X>X8 0 w g O.>X>X>X>X>X>X>X>X>X>X",
">X>X>X>X>X>X>X>X>XY > 6 7 >X>X2 5 c E >X>X>X>X>X>X>X>X>X>X>X",
">X>X>X>X>X>X>X>X>Xl.n.g.>X>X>X>X>XC.C.>X>X>X>X>X>X>X>X>X>X>X",
">X>X>X>X>X>X>X>XD.k.j.%Xh.>X>X>X*Xj.j.D.>X>X>X>X>X>X>X>X>X>X",
">X>X>X>X>X>X>X9.&.Q.Q.$.k >X>Xk %.Q.O.#.9.>X>X>X>X>X>X>X>X>X",
">X>X>X>X>X>X>Xe R.~.~.s 5 >X>X* s !.~.E.l >X>X>X>X>X>X>X>X>X",
">X>X>X>X>X>X>X3 q r r 0 * >X>X% 8 r y r < >X>X>X>X>X>X>X>X>X",
">X>X>X>X>X>X>X& 4 7 7 , O >X>XO 3 2 2 4 & >X>X>X>X>X>X>X>X>X",
">X>X>X>X>X>X>X@ # % % @   >X>X  @ # % # @ >X>X>X>X>X>X>X>X>X",
">X>X>X>X>X>X>X>X>XX   >X>X>X>X>X>X>XX >X>X>X>X>X>X>X>X>X>X>X"
};
