/* XPM */
static char *result[] = {
/* columns rows colors chars-per-pixel */
"50 50 91 1 ",
"  c #4B6F1B",
". c #4F7917",
"X c #4C711B",
"o c #527E16",
"O c #51761F",
"+ c #537B1B",
"@ c #4E7621",
"# c #4C7C22",
"$ c #517520",
"% c #547A21",
"& c #5B7D23",
"* c #5B782A",
"= c #5A7933",
"- c #5F7D3D",
"; c #617E23",
": c #657B29",
"> c #3D942C",
", c #359E2F",
"< c #3A9C2E",
"1 c #35A32F",
"2 c #35A230",
"3 c #3BA331",
"4 c #55890F",
"5 c #4F8E16",
"6 c #4E831C",
"7 c #4D881B",
"8 c #548414",
"9 c #588615",
"0 c #568911",
"q c #5A8B15",
"w c #548119",
"e c #5D841C",
"r c #5E8C19",
"t c #47921D",
"y c #4D931B",
"u c #52911A",
"i c #5C921A",
"p c #628E1D",
"a c #63901E",
"s c #478425",
"d c #4C8324",
"f c #468A24",
"g c #438C29",
"h c #4B8C28",
"j c #538324",
"k c #5D8322",
"l c #528824",
"z c #5E8B23",
"x c #40912A",
"c c #49962B",
"v c #439A2B",
"b c #4C9B2C",
"n c #569522",
"m c #5E9523",
"M c #5C9A22",
"N c #519B2B",
"B c #5C992B",
"V c #648325",
"C c #668E21",
"Z c #688F24",
"A c #678129",
"S c #669122",
"D c #699225",
"F c #639A23",
"G c #699927",
"H c #64962A",
"J c #6C9529",
"K c #6B9A2C",
"L c #658737",
"P c #688A34",
"I c #62833A",
"U c #43A22D",
"Y c #43A734",
"T c #4BAA36",
"R c #51A431",
"E c #59AB39",
"W c #6FAC36",
"Q c #6FAE3A",
"! c #73A536",
"~ c #71AA35",
"^ c #74AA3A",
"/ c #79B03F",
"( c #698942",
") c #6A8948",
"_ c #6E9342",
"` c #6B8352",
"' c #78925D",
"] c #6CB341",
"[ c #74B642",
"{ c #78B441",
"} c #7D9762",
/* pixels */
"JJrqCCCp0pCCCp404.XXoqDCJJCDe  oqpCp44pS0pp44. X04",
"DDprrSprrrpprq00rCew9pCCDJDDCko8qCCp4pDDqpprpooVpr",
"CpCp0DpqSppp440rDJD0rCpCCSSCSSq4qSDarSDDraDpaprJJS",
"pqpp0DpqDJJpq4qDJDCqppqpp4qpp004rDJGDCpDJJaqpp9CJJ",
"q00q0q00rDaq4rprSSCCCp000qpCp0400qqqqqpprDJDapppCp",
"440qrrq04rar40r4pprrrr444qCpq0qq040qr4qr4aDDpppppp",
"400qpCr444pJr0qqpr0040qq00pq00pr404rDr444pCpqq00pp",
"qpq0qar0qpJJCCZpCp000qpCr00000Cr004iJDp44ppqppp0q0",
"pSr0rr04prpJCJJJJp440qCrpprq40pCppqqDJp40qq0DPIIIz",
"CCrpDrqqprpDCDJJJp0r00p0pJDr0rpDCDppaaprq000p(```=",
"CCCDJDr0CCCCCCCCJpqpr444rJJrrJDCCJJJaqpJCq000_'``-",
"rpDJJJiqJZCDDDZCDCp900pqrDJrrJCDJJDpraJJJSr0CkI}})",
"qpZJJJDaJJDCCDpppCJpqqppnNHCaJDCJDCCpJJDpCCraVV()L",
"qppCDJDDDJDppap4pJJDpqpCc3zDGHDDCpppSDDaqpDCppV+%k",
"0000qDp00pp0qpaqaJDrpp9+g<#ZB3HDpq4rpqqqpCCCqpCCCZ",
"r04qprq44qF~Dpr4pprpCp0ejskkh2deq04rpq00rpDCqpZZCZ",
"SrrrCqqrFqn]KKi0pr4rprrCVkCesxjw400rS040rpCpppaZaV",
"CJJJCqrJ[Mt3H^Qq44040rpCDJSq8Opr004qpq4rpCrqpCZJDA",
"qCDJJSCmYhs2dcU00440rpSDJDq00800404qDDSSJr4qpJJJA:",
"qCDDDkkl2s#g@>,+8qp0pCrSDSq440rq004rSbBJJqqpAZJD::",
"qCCpC++d>d%%$gv%9aDipp0pCpq400ppq0iaS3cJJrrSVVCCA:",
"JZqqS0rV%zDD%kDJJJJDr400rDpr0qpCa0W^S<g%DJa00e:CDV",
"JJryv5rDVCDJZrpJJJDr0440qqq0qDCZSSRRSs#%Dpq00;:A::",
"CJrf25CJCpZDJCpZSDJrrq0qq44raJZpVC<<k&kV!i440e::;p",
"qD&s<5iDprrpDJDCqrJZCpqpr40CJJCp8%>g%CCG[a840pC;9p",
"CCrw+80qqpr00pp040qprrpCr40pDJCDJJjjCCru3do0pCp84p",
"rCp9w0000ppr0pp0440CppCpq000rrrrrrVCCr07fw9pCpr440",
"qSDp0q040pDSrpp400rCppp040qq004400iSZrq9+8pZa9400q",
"qDJS0Cr40pCCCSp00rCCr4004qpSp000040pJJDp00qC0000pp",
"qCJDpCr04qqqprq4pDJDr40rr0qpp04040pDJDCCpqqC4pp4qp",
"rCDDCCr04rr0prraDDpCr0rpr0arq0qq0rCJDCppCqqrpppq8e",
"CCCDCSr40Da40aGDDpqpqqCCpqDrq0CrrCCCCCrqCq0qppp8O=",
"SCCZCCrqCDS0aW^qq000000pCCJJS0pCCCJDCCDSqppp9ppOX=",
"rCppDDppCJDSbTT0rppq000qpCrDS0DDJDJJCCDJpCJCqq9V;*",
"rpqrJDCDCJJH3,>8pZDq4000qiFSr0aJJJSSSDDJDJDp009V::",
"p04qJJDSCCZJ3fOOpDDr00040i[F000rJDrrDJJJJJDp0V::::",
"p00qDJpqCCZC#@%ZCDDDCrq000Yy4440qqaDJJJDppZpq;::::",
"Cpq0rrq0rrpCkkkpCCCJDp4w+71f9r0qrrrSJaSDpppa0pA+VA",
"pDr4000q04rCCCpqpZDJDpq+%d<skGrrCCrrSqrpppppppapaV",
"qDr400rp04qCqrp0pCpCDJCCCV%kK{i0qSCpq44qppZapaapaa",
"qDDp0rCp0ppq00q0qrCrqpCCDDwqnTu00qqpp440p9ppZZZDpq",
"qDJS0SDCrpi000000rpq00pSDD08f17qq40pprq4444ppaDJq4",
"0aDSqDJDJr0440000qp0440SJD0+d<#kpqpCCCp049440pJJq4",
"0qSJDJ!/Jr400rp040q0000qaD008#kDJaDCCCpp4pp440pD94",
"40qG!JWEDprr0rC0ppr44400qip0qkCDJDZZJCZDprr004qppp",
"0q0M]Hx,zpCCrrCqSDpqqq4000CraJDSDJaaZCDCp0444044ap",
"qDpy2dg,@8rCDJDCDSqCCp004qCCSJJpqDp49ar04044444qpa",
"qDef2#@#@wrCDDJDrrpCrqppqqprqrDp0p000Cpp04rpppp4pp",
"qrklx6+++80aSDDCprppq0rCprpq44pq444qraap40pZppapp9",
"00FV$8440440pCCDCr44440pDp040400404raCp44pCp0pZC94"
};
