/* XPM */
static char *result[] = {
/* columns rows colors chars-per-pixel */
"41 50 202 2 ",
"   c #110E0A",
".  c #1E1B14",
"X  c #251E16",
"o  c #262119",
"O  c #2F291F",
"+  c #2B261C",
"@  c #36271D",
"#  c #2E2D23",
"$  c #352E23",
"%  c #3B2D22",
"&  c #3B3426",
"*  c #3C3629",
"=  c #3A3528",
"-  c #48271E",
";  c #54261D",
":  c #442D21",
">  c #423C2D",
",  c #4B382A",
"<  c #473E30",
"1  c #66372A",
"2  c #75362A",
"3  c #6D4A10",
"4  c #4C4D3B",
"5  c #484635",
"6  c #514E3C",
"7  c #51513E",
"8  c #5B533D",
"9  c #52472E",
"0  c #7D5C22",
"q  c #6A4836",
"w  c #7B4537",
"e  c #664D2C",
"r  c #504C41",
"t  c #555542",
"y  c #5A5B46",
"u  c #5E5E49",
"i  c #595744",
"p  c #775E47",
"a  c #625D53",
"s  c #6C5844",
"d  c #63644C",
"f  c #6C694C",
"g  c #66684F",
"h  c #776349",
"j  c #676951",
"k  c #6B6C53",
"l  c #6B665B",
"z  c #7E6C53",
"x  c #6E7056",
"c  c #737256",
"v  c #74755A",
"b  c #77795D",
"n  c #7A7B5E",
"m  c #7D7358",
"M  c #7B7D60",
"N  c #767663",
"B  c #AA1513",
"V  c #A81C17",
"C  c #B51611",
"Z  c #8C251F",
"A  c #B3231D",
"S  c #A73211",
"D  c #B5311A",
"F  c #862A23",
"G  c #86392D",
"H  c #B7392C",
"J  c #B93F30",
"K  c #AC2821",
"L  c #CB1413",
"P  c #DD1414",
"I  c #EC1616",
"U  c #C2201B",
"Y  c #F72D2A",
"T  c #AC5711",
"R  c #BF6C14",
"E  c #B36C1E",
"W  c #B36717",
"Q  c #894239",
"!  c #904C39",
"~  c #9F513D",
"^  c #894629",
"/  c #BB4D39",
"(  c #96723C",
")  c #90642E",
"_  c #A56C29",
"`  c #AE7531",
"'  c #B57A2C",
"]  c #C44A06",
"[  c #C65805",
"{  c #C76401",
"}  c #CC6501",
"|  c #CD6906",
" . c #CC6A0A",
".. c #D06700",
"X. c #D46900",
"o. c #D56E05",
"O. c #D77401",
"+. c #DC7300",
"@. c #DE7900",
"#. c #D3700C",
"$. c #C06C11",
"%. c #E47C00",
"&. c #E97E00",
"*. c #E07700",
"=. c #C84F2D",
"-. c #855A45",
";. c #995946",
":. c #BB5848",
">. c #976348",
",. c #8D764A",
"<. c #837348",
"1. c #826B55",
"2. c #857851",
"3. c #847659",
"4. c #967758",
"5. c #9C6357",
"6. c #B9674C",
"7. c #B07055",
"8. c #9B7C62",
"9. c #B37D60",
"0. c #C14C43",
"q. c #E95340",
"w. c #EC5F50",
"e. c #F44742",
"r. c #C77756",
"t. c #E76950",
"y. c #CF7064",
"u. c #CD6C66",
"i. c #FC6D66",
"p. c #E87D75",
"a. c #BC811C",
"s. c #A3833D",
"d. c #B38531",
"f. c #DF8502",
"g. c #CD8218",
"h. c #D38E1C",
"j. c #E58100",
"k. c #EB8400",
"l. c #E58A02",
"z. c #EC8B01",
"x. c #F28C00",
"c. c #EE9001",
"v. c #ED9309",
"b. c #F49301",
"n. c #FB9600",
"m. c #FF9800",
"M. c #C98C24",
"N. c #948049",
"B. c #878369",
"V. c #958966",
"C. c #9B8876",
"Z. c #888174",
"A. c #BC9B6F",
"S. c #A58970",
"D. c #B7A575",
"F. c #C6845E",
"G. c #C8935B",
"H. c #C79169",
"J. c #D19C60",
"K. c #C68C63",
"L. c #CCA675",
"P. c #CFA97C",
"I. c #C9B27E",
"U. c #D0B17D",
"Y. c #D3AD7B",
"T. c #938E84",
"R. c #A09C8E",
"E. c #B2AE92",
"W. c #A9A089",
"Q. c #BEBBAB",
"!. c #D28F81",
"~. c #F09483",
"^. c #CBBA82",
"/. c #D1BC84",
"(. c #D2B786",
"). c #D0A590",
"_. c #DEB699",
"`. c #D0A785",
"'. c #E2A293",
"]. c #FFA397",
"[. c #CBBFA9",
"{. c #FCBBAE",
"}. c #E8BAAD",
"|. c #D4C087",
" X c #D4C188",
".X c #D9C692",
"XX c #DACA9D",
"oX c #C9C0AF",
"OX c #DDCEA5",
"+X c #DFD1A3",
"@X c #DFD6B7",
"#X c #F4C0AE",
"$X c #F2CAB3",
"%X c #DBD7C5",
"&X c #E0DDD8",
"*X c #F0E9CF",
"=X c #F4EFD9",
"-X c #F7F2DC",
";X c #EEE4C5",
":X c #FBF6E3",
">X c #FDF9E6",
",X c None",
/* pixels */
",X,X,X,X,X,X,X,X,X,X,X,X,X,X,X,X,X,X,X,X,X,X,X,X,XO.,X,X,X,X,X,X,X,X,X,X,X,X,X,X,X",
",X,X,X,X,X,X,X,X,X,X,X,X,X,X,X,X,X,X,X,X,X,X,X,X,X| @.,X,X,X,X,X,X,X,X,X,X,X,X,X,X",
",X,X,X,X,X,X,X,X,X,X,X,X,X,X,X,X,X,X,X,X,X,X,X,X,X,XO.%.,X,X,X,X,X,X,X,X,X,X,X,X,X",
",X,X,X,X,X,X,X,X,X,X,X,X,X,X,X,X,Xc.,X,X,X,X,X,X,X,X..@.l.,X,X,X,X,X,X,X,X,X,X,X,X",
",X,X,X,X,X,X,X,X,X,X,X,Xb.b.b.c.l.b.b.z.,X,X,X,X,X,X} X.j.,X,X,X,X,X,X,X,X,X,X,X,X",
",X,X,X,X,X,X,X,X,X,X,Xz.m.m.m.m.n.k.n.m.b.,X,X,X,X,X} X.+.z.,X,X,X,X,X,X,X,X,X,X,X",
",X,X,X,X,X,X,X,X,X,X@.n.m.m.m.m.m.z.z.m.m.b.l.,X,X,X..X.X.k.,X,X,X,X,X,X,X,X,X,X,X",
",X,X,X,X,X,X,X,X{ ..z.m.m.m.m.m.m.n.&.x.m.n.n.b.f.o.X.X.X.%.b.,X,X,X,X,X,X,X,X,X,X",
",X,X,X,X,X,X,X{ ..+.b.m.m.m.m.m.m.m.z.j.m.m.m.m.b.x.@.X.X.k.b.,X,X,X,X,X,X,X,X,X,X",
",X,Xc.,X,X,X,X..X.%.m.m.m.m.m.m.m.m.b.%.x.m.m.m.n.n.b.j.@.x.,X,X,X,X,X,X,X,X,X,X,X",
",X,Xb.b.,X,X..X.X.&.m.m.m.m.m.m.m.m.m.k.x.m.m.m.b.k.m.m.b.z.,X,X,X,X,X,X,X,X,X,X,X",
",X,Xb.m.b.O.X.X.X.k.m.m.m.m.m.m.m.m.m.m.x.m.m.x.@.k.m.m.m.n.,X,X,X,X,X,X,X,X,X,X,X",
",X,Xl.m.m.b.@.X.X.x.n.n.m.n.b.n.m.m.m.m.x.k.*.X.+.b.m.m.m.m.c.,X,X,X,X,X,X,X,X,X,X",
",X,X,Xb.m.m.n.b.x.x.n.n.n.n.n.b.n.m.m.m.m.x.*.X.k.m.m.m.m.m.z.,X,X,X,X,X,X,X,X,X,X",
",X,X,Xk.m.m.m.m.m.m.m.m.m.m.m.n.n.m.m.m.m.m.m.b.b.n.m.m.m.k.,X,X,X,X,X,X,X,X,X,X,X",
",X,X,Xo.x.m.m.m.m.m.m.m.m.m.m.m.m.m.m.m.m.v.h.d.` ' v.m.k...,X,X,X,X,X,X,X,X,X,X,X",
",X,X,X,X@.x.m.m.m.m.m.m.m.m.n.m.m.m.m.m.v.s.n >.F.4.g.g.R { ,X,X,X,X,X,X,X,X,X,X,X",
",X,X,X,X} +.k.k.k.k.k.k.&.*.&.b.m.m.m.b.d.n n ;.8.z ,.<.E ,X,X,X,X,X,X,X,X,X,X,X,X",
",X,X,X,X} X.X.X.X.X...X.X.*.x.m.m.m.m.v.N.M b z ;.;.m f W ,X,X,X,X,X,X,X,X,X,X,X,X",
",X,X,X,X} ..............+.%.&.&.&.k.m.n.s.b b n p -.W.) ,X,X,X,X,X,X,X,X,X,X,X,X,X",
",X,X,X,X..X.X.X.X.X.X.X.X.X.$.E E $.k.m.d.d B.E.M y Z.^ ! ,X,X,X,X,X,X,X,X,X,X,X,X",
",X,X,X,X..X.X.X.X.X.X.X.X.X.$.( f 8 0 l.M.t T.&XN 5 4 G ;.v ,X,X,X,X,X,X,X,X,X,X,X",
",X,X,X,XX.X.X.X.X.X.X.X.X.X.X.| _ 9 # 3 a.f 6 a t u y s 1.b ,X,X,X,X,X,X,X,X,X,X,X",
",X,X,X,X..X.X.X...X.[ ] ] [  .#.} T e > e v i 7 u N j v M b b ,X,X,X,X,X,X,X,X,X,X",
",X,X,X{ X.X.X.X.X.X.S Z B C =.J.G.D B Z F -.k u x M n n n n n b ,X,X,X,X,X,X,X,X,X",
",X,X,XX.X.X.X.X.X.T 2 6 2 B P e.Y.9.H A A ~ b x v M M m z n M n v ,X,X,X,X,X,X,X,X",
",X,X,XX.X.X.X.X.X._ k d t 2 C I t..X/.U.P.L.4.z 1.4.S.;.z M M n b ,X,X,X,X,X,X,X,X",
",X,X,XX.X.X.X.X.$.2.M b k 8 Z L Y #X=X=X_.:.K 6.K.A.V.z n n M M n ,X,X,X,X,X,X,X,X",
",X,X,X..X.X.X.o.( M M M M j q V I Y.-X{.:.H H L.^.V.n n M n M M n b ,X,X,X,X,X,X,X",
",X,X,X..X.X.X.E m M M b M M u F P i.-X'.F.K.L./.,Xb n n n n M M n b ,Xb n b b ,X,X",
",X,X,X} X.X. .,.M M M M M M N q L w.OXH.r.U.|.,X,X,Xn n M M M M n n b b M n b b ,X",
",X,X,X,XX.X._ n M M M M M b M p V r./.r.A H.^.,X,X,Xv M n M M M n n b k x b b b ,X",
",X,X,X,X..R 2.M M M M M M n M 4.7.U..XY.H / ^.,X,X,X,XM n n M n n b g 7 4 i j k k ",
",X,X,X,XW ,.M b M M M M n n B.I. X X|.|.r.U ~.@X,X,X,Xv n b n M b g 7 ,X,X,X,X,X,X",
",X,X,X,X,Xn M M M M M M M n 3.^./. X.XOX+Xe.i.[.* ,X,X,Xb b b v d ,X,X,X,X,X,X,X,X",
",X,X,X,X,Xb n M M M M M n n ,X,X^..X;X:X>X{.].[.* & & ,Xb n b u ,X,X,X,X,X,X,X,X,X",
",X,X,X,X,Xv n M M M M M n n ,X,X2.D.OX=X:X:X>XQ.* * * * d n v ,X,X,X,X,X,X,X,X,X,X",
",X,X,X,X,Xv n M M M M M n M ,X,XX > 3.%X:X>X>XR.$ & * & ,Xb v ,X,X,X,X,X,X,X,X,X,X",
",X,X,X,X,X,Xb M M M M M n n v X + + + r T.%X=Xl X @ % ,X,X,X,X,X,X,X,X,X,X,X,X,X,X",
",X,X,X,X,X,Xb M M M M M n n b 5 > > 6 d 5 ,X,X= @ ; - ,X,X,X,X,X,X,X,X,X,X,X,X,X,X",
",X,X,X,X,X,Xv n n M M M n n n b c j v M b ,X,X,X* : ; ,X,X,X,X,X,X,X,X,X,X,X,X,X,X",
",X,X,X,X,X,X,Xb M M M n n n b b M M v c n d ,X. $ ;.u.,X,X,X,X,X,X,X,X,X,X,X,X,X,X",
",X,X,X,X,X,X,Xb n n n n n n b b x n v i k d ,X. : ).$Xp.,X,X,X,X,X,X,X,X,X,X,X,X,X",
",X,X,X,X,X,X,X,Xn n M n n n n v u j n g 7 5 ,X  q `.'.:.,X,X,X,X,X,X,X,X,X,X,X,X,X",
",X,X,X,X,X,X,X,X,Xb M M b v b M h w h g ,X,X,X,X,X1 1 : ,X,X,X,X,X,X,X,X,X,X,X,X,X",
",X,X,X,X,X,X,X,X,Xv b b c i u x 3.y.5.5 ,X,X,X,X,X,X,X,X,X,X,X,X,X,X,X,X,X,X,X,X,X",
",X,X,X,X,X,X,X,X,X,Xg u t 4 < C.C.!.`.,X,X,X,X,X,X,X,X,X,X,X,X,X,X,X,X,X,X,X,X,X,X",
",X,X,X,X,X,X,X,X,X,X,X,X,X,X,XC.5.Q Q : ,X,X,X,X,X,X,X,X,X,X,X,X,X,X,X,X,X,X,X,X,X",
",X,X,X,X,X,X,X,X,X,X,X,X,X,X,X@ % & $ ,X,X,X,X,X,X,X,X,X,X,X,X,X,X,X,X,X,X,X,X,X,X",
",X,X,X,X,X,X,X,X,X,X,X,X,X,X,X,Xo O ,X,X,X,X,X,X,X,X,X,X,X,X,X,X,X,X,X,X,X,X,X,X,X"
};
