/* XPM */
static char *result[] = {
/* columns rows colors chars-per-pixel */
"12 15 91 1 ",
"  c #45382C",
". c #4A4736",
"X c #5E4235",
"o c #624236",
"O c #5F5747",
"+ c #5B5842",
"@ c #6A5244",
"# c #7A614E",
"$ c #7B644C",
"% c #6F6653",
"& c #696A51",
"* c #6D6E54",
"= c #6D6F55",
"- c #716C53",
"; c #7B6E58",
": c #6F7055",
"> c #6F7156",
", c #707156",
"< c #717257",
"1 c #797357",
"2 c #7B775B",
"3 c #77795C",
"4 c #7B7A5D",
"5 c #787A5E",
"6 c #797B5E",
"7 c #797B5F",
"8 c #7A7C5F",
"9 c #787D60",
"0 c #99431F",
"q c #9A661C",
"w c #B86916",
"e c #B76C1B",
"r c #AC453B",
"t c #A37131",
"y c #C46409",
"u c #D16401",
"i c #D16700",
"p c #D26700",
"a c #D26800",
"s c #D46900",
"d c #D86F00",
"f c #DA7200",
"g c #DC7600",
"h c #E07700",
"j c #E17900",
"k c #E27B00",
"l c #E47C00",
"z c #C5562F",
"x c #815448",
"c c #A95F43",
"v c #83634A",
"b c #906E4D",
"n c #937B4E",
"m c #817453",
"M c #817752",
"N c #837A55",
"B c #997055",
"V c #BE7F5E",
"C c #807B67",
"Z c #D78716",
"A c #D88718",
"S c #E78200",
"D c #E78604",
"F c #E98400",
"G c #ED8802",
"H c #F38B00",
"J c #F28E00",
"K c #F48E00",
"L c #F58F00",
"P c #E6900E",
"I c #F39000",
"U c #F79300",
"Y c #F89300",
"T c #F99300",
"R c #FA9400",
"E c #FB9400",
"W c #FA9500",
"Q c #FB9500",
"! c #FB9701",
"~ c #FC9600",
"^ c #FD9700",
"/ c #FE9800",
"( c #968462",
") c #A1956C",
"_ c #CA8A65",
"` c #CF8E6A",
"' c #B1AB9C",
"] c #E39E87",
"[ c #DAA593",
"{ c #D9C19A",
"} c None",
/* pixels */
"}}}}}}}}}}}}",
"}}}JUI}}g}}}",
"}}fT/LWSk}}}",
"}Fl~^EHKY}}}",
"}KRQ~!ZAD}}}",
"}dhjGPnb}}}}",
"}ipuwqm%$}}}",
"}sy0zcv12}}}",
"}at-r]V(45}}",
"}eN9B`_}73*,",
"}M87){[O:=}}",
"}}88+C' }}}}",
"}}68<&.x}}}}",
"}}}>;#}o}}}}",
"}}}}@X}}}}}}"
};
