/* XPM */
static char *result[] = {
/* columns rows colors chars-per-pixel */
"25 30 143 2 ",
"   c #2F281D",
".  c #2E261D",
"X  c #312118",
"o  c #38281E",
"O  c #362E21",
"+  c #393225",
"@  c #3B3628",
"#  c #413B2C",
"$  c #7A3D2E",
"%  c #613A30",
"&  c #6B3F33",
"*  c #63491E",
"=  c #4C4735",
"-  c #494838",
";  c #50463C",
":  c #765328",
">  c #6F4C3B",
",  c #765236",
"<  c #5B5B46",
"1  c #5D5E48",
"2  c #685944",
"3  c #755C48",
"4  c #7D5744",
"5  c #5F6149",
"6  c #66654F",
"7  c #6C644C",
"8  c #70654E",
"9  c #696551",
"0  c #6C6D53",
"q  c #6D6B5E",
"w  c #776F55",
"e  c #7E6B53",
"r  c #6F7157",
"t  c #727257",
"y  c #7D7156",
"u  c #74765A",
"i  c #7D765D",
"p  c #77795C",
"a  c #7A7B5E",
"s  c #787665",
"d  c #7B7D60",
"f  c #7E7B6A",
"g  c #AD1D1A",
"h  c #812A1D",
"j  c #A93010",
"k  c #9E2720",
"l  c #CA1C19",
"z  c #AE450E",
"x  c #B86A16",
"c  c #B0691B",
"v  c #B96D1A",
"b  c #844637",
"n  c #8D523C",
"m  c #B65B28",
"M  c #B3533E",
"N  c #926E27",
"B  c #9E6822",
"V  c #94733C",
"C  c #AC6D23",
"Z  c #A9702A",
"A  c #A17031",
"S  c #B77D36",
"D  c #C44313",
"F  c #CE6600",
"G  c #CB6B08",
"H  c #C66608",
"J  c #D16600",
"K  c #D36900",
"L  c #DB7400",
"P  c #DD7A03",
"I  c #E07700",
"U  c #E37D00",
"Y  c #DF4F3C",
"T  c #D27C36",
"R  c #895146",
"E  c #85584A",
"W  c #B85F48",
"Q  c #BE5A42",
"!  c #89624D",
"~  c #947440",
"^  c #8B6550",
"/  c #87695C",
"(  c #826D53",
")  c #946C54",
"_  c #817955",
"`  c #897659",
"'  c #8A785B",
"]  c #867859",
"[  c #987758",
"{  c #BF654C",
"}  c #AF7858",
"|  c #AB7C6B",
" . c #B27A68",
".. c #D35645",
"X. c #C37655",
"o. c #F1615B",
"O. c #C97E64",
"+. c #EA6F63",
"@. c #B38127",
"#. c #BA882D",
"$. c #A88439",
"%. c #D0810B",
"&. c #E58201",
"*. c #EA8300",
"=. c #EE8A00",
"-. c #E28B0D",
";. c #F38D00",
":. c #F49200",
">. c #FB9500",
",. c #FE9800",
"<. c #F09408",
"1. c #C18928",
"2. c #8D8A66",
"3. c #998B7D",
"4. c #99927E",
"5. c #A88E68",
"6. c #A29267",
"7. c #CF8C67",
"8. c #CA8462",
"9. c #C9966A",
"0. c #DD9B7E",
"q. c #F08B79",
"w. c #C9A776",
"e. c #CCAD7A",
"r. c #D3A77F",
"t. c #C2B07D",
"y. c #D0B27C",
"u. c #9D9987",
"i. c #B89F8A",
"p. c #D59D80",
"a. c #E29085",
"s. c #C3B181",
"d. c #D5C289",
"f. c #DACA98",
"g. c #CBC6B6",
"h. c #EDCEB9",
"j. c #FBC6B8",
"k. c #E9DFBE",
"l. c #DFDBC8",
"z. c #ECDEC1",
"x. c #F3EFDD",
"c. c #FAE9D5",
"v. c None",
/* pixels */
"v.v.v.v.v.v.v.v.v.v.v.v.v.v.v.K v.v.v.v.v.v.v.v.v.",
"v.v.v.v.v.v.v.v.v.v.v.v.v.v.v.v.L v.v.v.v.v.v.v.v.",
"v.v.v.v.v.v.v.v.:.v.=.:.v.v.v.v.K &.v.v.v.v.v.v.v.",
"v.v.v.v.v.v.P >.,.,.:.:.>.v.v.v.K L v.v.v.v.v.v.v.",
"v.v.v.v.v.K =.,.,.,.:.=.>.>.:.L J L *.v.v.v.v.v.v.",
"v.v.v.v.F L :.,.,.,.,.;.:.,.>.:.&.U =.v.v.v.v.v.v.",
"v.:.:.K K I >.,.,.,.,.:.;.>.;.=.>.:.v.v.v.v.v.v.v.",
"v.v.>.*.L U >.,.>.>.,.,.>.*.L ;.,.,.:.v.v.v.v.v.v.",
"v.v.:.,.>.>.,.,.,.>.>.,.>.;.&.<.,.:.&.v.v.v.v.v.v.",
"v.v.U >.,.,.,.,.>.,.,.,.<.1.S S -.P v.v.v.v.v.v.v.",
"v.v.F L *.*.U U *.>.,.>.#._ ) ) V c v.v.v.v.v.v.v.",
"v.v.F J J J J K I =.=.>.$.p ( ^ ` v.v.v.v.v.v.v.v.",
"v.v.F K J K K K H C B P S f u.6 4 n v.v.v.v.v.v.v.",
"v.v.K K J J J J F x : * N 6 q < 2 e p v.v.v.v.v.v.",
"v.v.F K J J z j D T m h $ 7 1 t t a a v.v.v.v.v.v.",
"v.v.K K J x , > g Y 8.X.W [ t ] ` y a a v.v.v.v.v.",
"v.v.K K K A p 9 $ l q.z.p.Q } 5.' a d a v.v.v.v.v.",
"v.v.J K v ] a a 7 k o.h.O.} w.2.a a a d p p p p v.",
"v.v.J G ~ d a a a b ..r.X.w.v.v.p a a a a t p p t ",
"v.v.H Z a d d d d [ 9.y...8.v.v.p a a a t 1 1 9 r ",
"v.v.v._ a a d d d t.d.f.0.+.i.v.v.p a r v.v.v.v.v.",
"v.v.v.p a a d a p 6.s.k.c.j.u.+ # r u v.v.v.v.v.v.",
"v.v.v.a d a d d p + = u.l.x.' + + v.t v.v.v.v.v.v.",
"v.v.v.v.a d d d p = + ; q g.; o v.v.v.v.v.v.v.v.v.",
"v.v.v.v.p a a a p t 0 t t v.. % v.v.v.v.v.v.v.v.v.",
"v.v.v.v.p a a a a p t r 6 v.X | a.v.v.v.v.v.v.v.v.",
"v.v.v.v.v.p a a s t 3 8 - v.v.! R v.v.v.v.v.v.v.v.",
"v.v.v.v.v.v.t 6 < ]  .) v.v.v.v.v.v.v.v.v.v.v.v.v.",
"v.v.v.v.v.v.v.v.v./ E > v.v.v.v.v.v.v.v.v.v.v.v.v.",
"v.v.v.v.v.v.v.v.v.v.    v.v.v.v.v.v.v.v.v.v.v.v.v."
};
