/* XPM */
static char *result[] = {
/* columns rows colors chars-per-pixel */
"30 50 176 2 ",
"   c #1A1F1C",
".  c #1A211E",
"X  c #1A2D2B",
"o  c #1C3C39",
"O  c #23322C",
"+  c #393825",
"@  c #5B4828",
"#  c #5E593C",
"$  c #634420",
"%  c #64542D",
"&  c #675230",
"*  c #5E603F",
"=  c #6B653E",
"-  c #7E6A3D",
";  c #756439",
":  c #71743D",
">  c #165859",
",  c #1E5A59",
"<  c #1D5857",
"1  c #1D4745",
"2  c #224642",
"3  c #26524C",
"4  c #36594B",
"5  c #205654",
"6  c #215956",
"7  c #2E5A51",
"8  c #205B59",
"9  c #355C50",
"0  c #23615E",
"q  c #2C625A",
"w  c #356355",
"e  c #236463",
"r  c #256967",
"t  c #256B69",
"y  c #286A68",
"u  c #26706F",
"i  c #297473",
"p  c #2A7977",
"a  c #2C7C7B",
"s  c #327D79",
"d  c #495E49",
"f  c #5F6142",
"g  c #5E6E4C",
"h  c #476856",
"j  c #4E725C",
"k  c #56765D",
"l  c #636C4E",
"z  c #776D41",
"x  c #7B754B",
"c  c #607A5D",
"v  c #6C7950",
"b  c #487A6F",
"n  c #577966",
"m  c #6A7A66",
"M  c #9B4E06",
"N  c #985A1A",
"B  c #86521A",
"V  c #A64F00",
"C  c #A95300",
"Z  c #A85B04",
"A  c #A85C12",
"S  c #996B17",
"D  c #AF6512",
"F  c #B36D11",
"G  c #925C20",
"H  c #835B2A",
"J  c #9A662B",
"K  c #856634",
"L  c #8C6C35",
"P  c #896C39",
"I  c #866638",
"U  c #966B34",
"Y  c #9B6C32",
"T  c #877B32",
"R  c #977339",
"E  c #967C24",
"W  c #A76E28",
"Q  c #A67336",
"!  c #AB7636",
"~  c #AC7B3A",
"^  c #A87A39",
"/  c #B37D3B",
"(  c #C06B05",
")  c #CB7C0B",
"_  c #806C42",
"`  c #847F4F",
"'  c #A77B41",
"]  c #2E807E",
"[  c #32827F",
"{  c #79855D",
"}  c #4A867A",
"|  c #488679",
" . c #508A7B",
".. c #63947D",
"X. c #AC863D",
"o. c #B5833E",
"O. c #DC920D",
"+. c #DB9D10",
"@. c #C98616",
"#. c #E89B0E",
"$. c #E09C14",
"%. c #EEA714",
"&. c #FDAD13",
"*. c #F3AA16",
"=. c #CE8D36",
"-. c #DCA13E",
";. c #F4AD22",
":. c #8C8C41",
">. c #94824B",
",. c #9F8540",
"<. c #968E5F",
"1. c #A48341",
"2. c #A98041",
"3. c #B28A4B",
"4. c #B88A45",
"5. c #AE934B",
"6. c #B2835A",
"7. c #AF9756",
"8. c #B79B53",
"9. c #B79854",
"0. c #BEA45C",
"q. c #828B65",
"w. c #A69D61",
"e. c #B39F63",
"r. c #92A77D",
"t. c #B3A466",
"y. c #C4934C",
"u. c #CB9B54",
"i. c #D09C52",
"p. c #C2A45C",
"a. c #D5A95E",
"s. c #DBA95D",
"d. c #D6A358",
"f. c #E9AE4E",
"g. c #E1AC5D",
"h. c #C4AC63",
"j. c #C9AD64",
"k. c #C7AF6B",
"l. c #D5AD63",
"z. c #DBAF6D",
"x. c #CCB164",
"c. c #CFB771",
"v. c #DCB667",
"b. c #E1AF61",
"n. c #E4B263",
"m. c #EDBB69",
"M. c #E8B767",
"N. c #F1BD69",
"B. c #EABF75",
"V. c #D7C47C",
"C. c #F5C26D",
"Z. c #F9C571",
"A. c #2E8483",
"S. c #2F8C8D",
"D. c #328583",
"F. c #338987",
"G. c #338D8C",
"H. c #388883",
"J. c #33908F",
"K. c #3D918B",
"L. c #339190",
"P. c #43938B",
"I. c #49988E",
"U. c #5C9E8D",
"Y. c #5DA08E",
"T. c #68A38D",
"R. c #76A588",
"E. c #9A9C86",
"W. c #B0A793",
"Q. c #A0B49A",
"!. c #BFC991",
"~. c #C0C88F",
"^. c #D5CA87",
"/. c #F8E4BD",
"(. c #EFE7D0",
"). c None",
/* pixels */
").).).).).).).).).).).).).).).).).).).).).).).).).).).).).).",
").).).).).).).).).).).).).).).).).).).).).).).).).).).).).).",
").).).).).).).).).).).).).).).).).).).).).).).).).).).).).).",
").).).).).).).).).).).).).).).).).D.F.).).).).).).).).).).).",
").).).).).).).).).).).).).).F.G.L.J.G.).).).).).).).).).).).",
").).).).).).).).).).).).G.G.G.G.G.J.F.).).).).).).).).).).).",
").).).).).).).).).).D.F.G.G.G.L.J.L.G.).).).).).).).).).).).",
").).).).).).).[ F.G.F.F.L.L.L.T.R.G.G.).).).).).).).).).).).",
").).).).).D.J.L.G.F.G.L.G.L.J.T.~.I.] 8 ).).).).).).).).).).",
").).).).G.L.L.L.G.F.G.L.I.Y.G.K.T.H.e 8 , ).).).).).).).).).",
").).).G.L.L.J.L.G.G.] S.U.!.U.S.a e 5 8 8 e ).).).).).).).).",
").).8 p A.G.J.J.L.L.a r s R. .t 8 8 5 8 8 e s ).).).).).).).",
").).6 8 0 e t t t u D.y 8 0 8 8 8 5 8 8 8 8 a ).).).).).).).",
").).8 , 8 8 6 < 8 6 i ] 8 8 8 8 6 , 8 8 8 8 a G.).).).).).).",
").3 8 8 , 6 8 8 8 8 8 i t 8 8 6 8 8 8 8 8 8 p L.D.).).).).).",
").y ] A.a i e 8 8 8 8 8 8 8 5 6 8 8 8 8 8 8 i L.G.).).).).).",
").J.L.L.L.L.G.] 0 8 8 8 , 8 5 6 8 8 8 8 8 , p L.L.F.).).).).",
"s L.L.L.L.L.L.L.F.t , , 8 8 8 , 8 8 8 8 8 8 a J.L.G.).).).).",
").).).b } P.L.L.J.S.p q 8 8 , 0 8 8 8 8 8 8 A.L.J.J.D.).).).",
").).).' _ E.Q.m n | [ s q 6 , , 8 8 8 8 8 e G.L.L.L.G.).).).",
").).).l.& E.(.' K K - z z & f 9 6 6 8 8 8 0 A.L.L.L.G.).).).",
").).).v.x W./.z.X.R R 1.L L P 9 , 8 8 8 8 8 p J.L.L.L.).).).",
").).).).l.C.Z.n.y.R 1.4.U ; d 9 8 8 8 8 8 8 e G.L.L.L.D.).).",
").).).).).m.C.l.1.I R 2.K ).5 8 8 8 8 8 8 8 8 a L.L.L.D.).).",
").).).).).).l.3.P 3./ I ).).).8 8 8 8 8 8 6 < r G.J.L.F.).).",
").).).).).).).).@.=./ J H ).).).8 8 8 8 8 0 , 0 y p S.A.).).",
").).).).).).).+.*.f.n.n.u.).).).7 , , 8 8 0 , , , r | r.).).",
").).).).).).).$.;.N.g.i.i.).).).>.w , , , < , 0 q k t.V.^.).",
").).).).).).).O.*.-./ Y ~ ).).).0.w.{ k j j { { 7.h.p.8.k.).",
").).).).).).).Z ( ) F W ~ ).).).0.x.x.0.h.h.t.x.k.x.0.).).).",
").).).).).).).M C C C N ! ).).).0.h.0.0.0.x.x.x.x.x.7.).).).",
").).).).).).).p.o.W A G Q J ).).7.5.,.).).p.x.x.x.k.).).).).",
").).).).).).).k.V.V.c.t.X./ Y ).).).).).).).0.j.x.h.).).).).",
").).).).).).).D Y >.4.o.d.g.o.).).).).).).).).).0.).).).).).",
").).).).).).%.#.S 4 B N b.N.4.).).).).).).).).).).).).).).).",
").).).).).).%.&.E < 4 l n.M./ ).).).).).).).).).).).).).).).",
").).).).).).&.&.T > h k.Z.M.u.9.).).).).).).).).).).).).).).",
").).).).).).*.*.: > { N.C.m.M.s.).).).).).).).).).).).).).).",
").).).).).).:.g 9 , h 3.g.g.y./ ).).).).).).).).).).).).).).",
").).).).).).).a e , , & / / ! ).).).).).).).).).).).).).).).",
").).).).).).).G.A.e 8 9 _ U ).).).).).).).).).).).).).).).).",
").).).).).A.P. .F.a 0 6 7 ).).).).).).).).).).).).).).).).).",
").).).).).u ..q.x v x f ).).).).).).).).).).).).).).).).).).",
").).).).o 3 <.e.! Q ' Y ).).).).).).).).).).).).).).).).).).",
").).).).).O # >.R R Q U ).).).).).).).).).).).).).).).).).).",
").).).).).).o 7 g 1.^ Q $ ).).).).).).).).).).).).).).).).).",
").).).).).).8 , 6 ` X.Y $ ).).).).).).).).).).).).).).).).).",
").).).).).X 5 , 7 L X.@ X ).).).).).).).).).).).).).).).).).",
").).).).).X O 1 2 + % + ).).).).).).).).).).).).).).).).).).",
").).).).).).)..   ).).).).).).).).).).).).).).).).).).).).)."
};
