/* XPM */
static char *result[] = {
/* columns rows colors chars-per-pixel */
"50 50 189 2 ",
"   c #121F0D",
".  c #141515",
"X  c #1D1615",
"o  c #161E15",
"O  c #1E1A15",
"+  c #1C1C1C",
"@  c #221915",
"#  c #231D1C",
"$  c #2B1E1C",
"%  c #14290C",
"&  c #1C300F",
"*  c #1C390E",
"=  c #1B2E16",
"-  c #1D241C",
";  c #1C2B19",
":  c #1A2413",
">  c #1D3416",
",  c #1E3B14",
"<  c #1E3218",
"1  c #23241E",
"2  c #2A231E",
"3  c #242B1C",
"4  c #2B2C1D",
"5  c #223616",
"6  c #213D14",
"7  c #233419",
"8  c #253A19",
"9  c #2C381C",
"0  c #1E1D20",
"q  c #211F20",
"w  c #252121",
"e  c #2C2321",
"r  c #2B2824",
"t  c #322624",
"y  c #352925",
"u  c #3A2B25",
"i  c #352928",
"p  c #3B2C2A",
"a  c #3C3E24",
"s  c #3A3321",
"d  c #412E25",
"f  c #402F2B",
"g  c #463025",
"h  c #4B3326",
"j  c #45312C",
"k  c #4B342B",
"l  c #4C3828",
"z  c #523626",
"x  c #50372B",
"c  c #54392C",
"v  c #5C3C2B",
"b  c #533930",
"n  c #613F2C",
"m  c #1C410D",
"M  c #1F4313",
"N  c #1F4A12",
"B  c #20490F",
"V  c #22540F",
"C  c #225B0F",
"Z  c #214412",
"A  c #224C11",
"S  c #23441A",
"D  c #2A4516",
"F  c #3B431B",
"G  c #334B16",
"H  c #235311",
"J  c #295414",
"K  c #255B13",
"L  c #2A5C15",
"P  c #275719",
"I  c #29541A",
"U  c #2B5C1B",
"Y  c #305C17",
"T  c #305719",
"R  c #345B1B",
"E  c #395F1C",
"W  c #22620E",
"Q  c #256312",
"!  c #2A6415",
"~  c #276A13",
"^  c #2B6D16",
"/  c #2C641B",
"(  c #2D6A1C",
")  c #306216",
"_  c #326D17",
"`  c #32631B",
"'  c #3A621D",
"]  c #336B1A",
"[  c #3A6A1C",
"{  c #2E711E",
"}  c #327016",
"|  c #34751B",
" . c #3C721F",
".. c #38781D",
"X. c #2D5B22",
"o. c #305E27",
"O. c #335428",
"+. c #2E6120",
"@. c #2F6F20",
"#. c #336523",
"$. c #3F6222",
"%. c #326C23",
"&. c #3B6C22",
"*. c #3B6E2C",
"=. c #346428",
"-. c #347423",
";. c #3A7324",
":. c #367926",
">. c #3C7A22",
",. c #3B752B",
"<. c #377A29",
"1. c #397B2C",
"2. c #3F7B32",
"3. c #3C7430",
"4. c #417A1F",
"5. c #42741F",
"6. c #4E4122",
"7. c #436E24",
"8. c #4C6F2A",
"9. c #457522",
"0. c #4A7525",
"q. c #447B24",
"w. c #4B7B25",
"e. c #43742A",
"r. c #457B2B",
"t. c #4C7A2A",
"y. c #517A29",
"u. c #427630",
"i. c #437E33",
"p. c #4D7D33",
"a. c #3D802E",
"s. c #458023",
"d. c #4C8626",
"f. c #4E8825",
"g. c #44822B",
"h. c #4A802A",
"j. c #4D892C",
"k. c #518727",
"l. c #55842B",
"z. c #58812D",
"x. c #528A2A",
"c. c #5C8B2E",
"v. c #57912D",
"b. c #5E922E",
"n. c #448434",
"m. c #4C8435",
"M. c #478937",
"N. c #4D8B34",
"B. c #45863A",
"V. c #478A3B",
"C. c #4D8D3A",
"Z. c #528633",
"A. c #538C33",
"S. c #5D8D33",
"D. c #528D3C",
"F. c #559033",
"G. c #5D9432",
"H. c #5E9837",
"J. c #53913A",
"K. c #5C953C",
"L. c #5E993D",
"P. c #608D2F",
"I. c #61942F",
"U. c #628D32",
"Y. c #649433",
"T. c #699635",
"R. c #659C35",
"E. c #6D9E37",
"W. c #64963A",
"Q. c #649B3B",
"!. c #6A9D38",
"~. c #6DA136",
"^. c #6CA23C",
"/. c #73A43C",
"(. c #75A93E",
"). c #78AA3E",
"_. c #4D8F40",
"`. c #549442",
"'. c #589641",
"]. c #5C9943",
"[. c #639D42",
"{. c #66A144",
"}. c #6CA443",
"|. c #72A742",
" X c #74A942",
".X c #7AAD42",
"XX c #7FB041",
"oX c #84B344",
"OX c None",
/* pixels */
"OXOXOXOXOXOXOXOXOXOXOXOXOXOXOXOXOXOXOXOXOXOXOXOXC V Z OXOXOXOXOXOXOXOXOXOXOXOXOXOXOXOXOXOXOXOXOXOXOX",
"OXOXOXOXOXOXOXOXOXOXOXOXOXOXOXOXOXOXOXA C C OXOX-.%.H OXOXC H OXOXOXOXOXOXOXOXOXOXOXOXOXOXOXOXOXOXOX",
"OXOXOXOXOXOXOXOXOXOXOXOXOXOXOXOXZ A C W w.&.,.i.[.D.! A V ` w.K A OXOXOXOXOXOXOXOXOXOXOXOXOXOXOXOXOX",
"OXOXOXOXOXOXOXOXOXOXOXOXOXOXOXOXOXA ) d..X/.'.^.[.|.W.e.J r.).0.Z OXOXOXOXOXOXOXOXOXOXOXOXOXOXOXOXOX",
"OXOXOXOXOXOXOXOXOXOXOXOXOXOXOXOXW ! I. X^.|.L.L.].}.}. Xk.] Z.9.V OXZ OXOXOXOXOXOXOXOXOXOXOXOXOXOXOX",
"OXOXOXOXOXOXOXOXOXOXOXOXOXOXA B V L ;.c.>.n.C.H. XG.}.[. Xt.t./ V C V OXOXOXOXOXOXOXOXOXOXOXOXOXOXOX",
"OXOXOXOXOXOXOXOXOXOXOXOXOXOXA 6 6 l.W.Z.c.F.(. X].>.v.].'.j./.A./ V A Z OXOXOXOXOXOXOXOXOXOXOXOXOXOX",
"OXOXOXOXOXOXOXOXOXOXOXOXOXOXOXA S z.x.(.Y.a.G...1.C.(.Q.n.-.&.| Q , 6 Z OXOXOXOXOXOXOXOXOXOXOXOXOXOX",
"OXOXOXOXOXOXOXOXOXOXOXOXOXOXOXK V J L Z.m./ :.+.U n.K.n.{ N.T.] B , Z Z A OXOXOXOXOXOXOXOXOXOXOXOXOX",
"OXOXOXOXOXOXOXOXOXOXOXOXOXOXZ A H M X.a./ J / ( 2.( I 2.%.;.Q.r.A 6 Z A OXOXOXOXOXOXOXOXOXOXOXOXOXOX",
"OXOXOXOXOXOXOXOXOXOXOXOXOXOX= > , > K ^ K B A L 1.( M L P K 1.#.Z > = OXOXOXOXOXOXOXOXOXOXOXOXOXOXOX",
"OXOXOXOXOXOXOXOXOXOXOXOXOXOX. ; > > K C B C V A L K M B Z M K J M > - o OXOXOXOXOXOXOXOXOXOXOXOXOXOX",
"OXOXOXOXOXOXOXOXOXOXOXA m OX  , M , , Z A H N A B Z V A > = = > , , ; 6 B * OXOXOXOXOXOXOXOXOXOXOXOX",
"OXOXOXOXOXOXOXH OXOXOXH V , * > , , > Z Z Z C V A H B M > > > , M M Z Z V K H Z OXOXOXOXOXOXOXOXOXOX",
"OXOXOXOXOXOXA Q K OXOXi.] N , V J H B A V Q A X.3.,.K , Z B A V ~ H 5 O.n.G.-.H OXW L K W A OXOXOXOX",
"OXOXOXOXZ V W f.l.r.r.[.j.P , P l.s.A B ] I.e.u.D.C.( S 6 B C ^ Y.e.*.p.}.{.C.` A A 0.k.J Z OXOXOXOX",
"OXOXOXOXJ [ x.(.oX[. X{._.K.7./ K./.E 9.x.T./.[. X`.D.Z.I L 5.G.oX.X[. X]. XXXQ.t.L A. X' Z OXOXOXOX",
"OXOXOXW C 9.(.Q.H.J.F.'.}.}..Xq.[ q.' d.' U K.D.J._.K.l._ L U.).G.L.J.J.].'.{.}..Xj.` r.Y C H A OXOX",
"OXOXZ A L ;.g.5.a.`.^..X.X].}.W.Z.j.I C C L B.L.Q.>.R Z B ( r.w...V.L.^.(.:.j.{.[.!.A.A.U H C V OXOX",
"OXA Z , 8.^.W.E.F.^./.J.A.^.`.n.x.Q.;.H H A 7.(.w.] T , 8 Y.^.Q.R.J..Xx.n.| ..~.].M.d.!.g.K Z Z S OX",
"OXOXV Z $...Y.!.| d.:.+.W.|.n.<.9.] K V C V R h.U m.b.J D w.q.^.x...j.( %.B.]. XC.1.,.[ ~ H > 6 A OX",
"OXA V C A H e.N./ @.-.U e.m.-.-.[.S.J V C V L i.=.#.[ C C B L Z.e./ -./ =.<.9.m.1.@.W.T.! M Z Z Z OX",
"OXZ Z A M S 1.( A P / 2.=.X.,.L t.D.I M Z C P / -.L N B N , X.<.K A P @.n.^ C P ,.U ,.`.] Z , Z OXOX",
"OXOX; 6 > H ~ C B A A -.X.M K B ! <.D > > , B B K L > , > > Q ~ V H N P <.~ H M K A K <.I 6 = : OXOX",
"OX. = 6 > M H A K C N H A Z B Z N H Z , M M V H A N M , > > N M Z H M M H K H B A , M N M Z < + . OX",
"OXOX& 6 6 = 6 A M A B , 6 V , , Z , > Z N N A B H A H N > = = < > , , 6 A M A K M = ; ; = > , 7 7 OX",
"OX> 6 > ; ; > , > > H Z 6 Z 6 5 > > > Z H N M P ! ! A , , > > , < , 6 7 9 6 M N < , ; ; - ; 6 6 4 $ ",
"@ r 4 3 - ; > 6 > ; > Z 3 2 t 9 6 , M C } J S o.C.n.K , N K / C A > 3 e # , ; ; = , , = ; - ; 4 e + ",
"OX2 2 ; - ; ; < - - - ; - 0 2 3 > M C | ~.S.m.S.}.[.,.I M ;.E.[ Z > w w 0 < = - - ; ; - - - - q + OX",
"OX. - ; - + - 0 - - 0 ; - w + ; M L l.!..X.X[.|.].}.[.W. .>.^.y.> > 5 ; 0 - 1 1 - ; - w q - ; + OXOX",
"OX# i e e e i - ; - 0 - r e 4 Z C K t./.j.C.C.A.}.{.}.|./.&.&.` A H G s 0 0 w w w ; - w q q r k OXOX",
"OXOXj k b p e e - e e w 2 1 6 Z Z &.N.q.q.C.{..X|.].}.].[.D.!.i.K C J F u e e w t r + e e q r j h OX",
"OXOXv x p p i e r d v u u t 9 S 6 U.R.|.R.j./.j.V.`.|.}.V.:.x.d./ M , A 6.u u f f p u u d d # i e OX",
"OXOXj y @ t i t p c h c x b a K B ' ] Y.S.^ q.( +.C.|.C.-.g.w.Q V , 6 Z F h c 6.u i j x n h OXX OXOX",
"OXOXOXOXOXX # u p u $ h k F D J K N P n.*.P %./ *.n.*.2.@.m.|.q.B , B 6 > u j v u e p p j OXOXOXOXOX",
"OXOXOXOXOXOX$ y # OXOX@ e y 8 6 Z > U -.Q N H ( a.+., X.X.L M.*.B , , OXOXOXi p t OX$ t OXOXOXOXOXOX",
"OXOXOXOXOXOXOXX OXOXOXOXOX+ w ; > > K W B H H H @.P , A A N ~ U Z > = OXOXOXOX# OXOXOXOXOXOXOXOXOXOX",
"OXOXOXOXOXOXOXOXOXOXOXOXOXOXo 5 , > M A H C V Z N H H A , > , , 6 , - + OXOXOXOXOXOXOXOXOXOXOXOXOXOX",
"OXOXOXOXOXOXOXOXOXOXOXOXOXOX% > 6 , ; Z , , A N > M C N = = ; ; = , , 5 : OXOXOXOXOXOXOXOXOXOXOXOXOX",
"OXOXOXOXOXOXOXOXOXOXOXOXOX@ 7 6 ; ; ; > , > , N S , M > , > ; - ; 5 5 4 2 OXOXOXOXOXOXOXOXOXOXOXOXOX",
"OXOXOXOXOXOXOXOXOXOXOXOXOX# e 4 ; - ; , , = ; > 6 ; - ; > 6 > - - - 1 e + OXOXOXOXOXOXOXOXOXOXOXOXOX",
"OXOXOXOXOXOXOXOXOXOXOXOXOXOX1 3 - - - - ; - - - ; ; - - - - - 1 - - + + OXOXOXOXOXOXOXOXOXOXOXOXOXOX",
"OXOXOXOXOXOXOXOXOXOXOXOXOXOX+ 1 - q w q + ; 0 0 - 1 1 - ; ; q q - ; 3 OXOXOXOXOXOXOXOXOXOXOXOXOXOXOX",
"OXOXOXOXOXOXOXOXOXOXOXOXOXOXe y y u y t ; - w 0 - w 1 e - - 2 2 0 w k z OXOXOXOXOXOXOXOXOXOXOXOXOXOX",
"OXOXOXOXOXOXOXOXOXOXOXOXOXOXOXc c j p e 1 1 u u e e e y i w r t e q i j OXOXOXOXOXOXOXOXOXOXOXOXOXOX",
"OXOXOXOXOXOXOXOXOXOXOXOXOXOXj v p i p i 2 t v z p j h u p p d j c $ e e OXOXOXOXOXOXOXOXOXOXOXOXOXOX",
"OXOXOXOXOXOXOXOXOXOXOXOXOXOX$ u # @ q t t j x g v b v h t p k v x OXOXOXOXOXOXOXOXOXOXOXOXOXOXOXOXOX",
"OXOXOXOXOXOXOXOXOXOXOXOXOXOXOXOXOX@ OX2 p u # @ h j k d # e p p OXOXOXOXOXOXOXOXOXOXOXOXOXOXOXOXOXOX",
"OXOXOXOXOXOXOXOXOXOXOXOXOXOXOXOXOXOXOXt $ OXOXOXOX# i i OXX $ OXOXOXOXOXOXOXOXOXOXOXOXOXOXOXOXOXOXOX",
"OXOXOXOXOXOXOXOXOXOXOXOXOXOXOXOXOXOXOXOXOXOXOXOXOXOXOXOXOXOXOXOXOXOXOXOXOXOXOXOXOXOXOXOXOXOXOXOXOXOX"
};
