/* XPM */
static char *result[] = {
/* columns rows colors chars-per-pixel */
"32 50 183 2 ",
"   c #131B19",
".  c #1C231F",
"X  c #332E1D",
"o  c #2C291D",
"O  c #1C2D29",
"+  c #1C322F",
"@  c #183D3A",
"#  c #2B3E35",
"$  c #363523",
"%  c #1D423F",
"&  c #384537",
"*  c #4E4735",
"=  c #69532E",
"-  c #69593A",
";  c #725026",
":  c #7C6222",
">  c #73702F",
",  c #656F3D",
"<  c #78663A",
"1  c #1E4D4B",
"2  c #1E5554",
"3  c #16585A",
"4  c #1E5B59",
"5  c #1E5857",
"6  c #21514E",
"7  c #2F574D",
"8  c #365B4E",
"9  c #37584A",
"0  c #215754",
"q  c #215956",
"w  c #205B59",
"e  c #2D5D54",
"r  c #325C51",
"t  c #23605E",
"y  c #3C6253",
"u  c #366357",
"i  c #246462",
"p  c #266967",
"a  c #256C6A",
"s  c #2F6D68",
"d  c #27706F",
"f  c #28706E",
"g  c #267475",
"h  c #2A7573",
"j  c #2A7877",
"k  c #2C7D7C",
"l  c #2C7778",
"z  c #317C7A",
"x  c #415442",
"c  c #425D4B",
"v  c #4B5E48",
"b  c #576749",
"n  c #5C6E54",
"m  c #56745B",
"M  c #796E4B",
"N  c #6A7247",
"B  c #657D5D",
"V  c #6B7D5F",
"C  c #677251",
"Z  c #487969",
"A  c #5E7E67",
"S  c #6B7A66",
"D  c #8D5014",
"F  c #995D1D",
"G  c #A64F00",
"H  c #A85401",
"J  c #A45204",
"K  c #AD670D",
"L  c #AC6216",
"P  c #B96403",
"I  c #8F632F",
"U  c #92632B",
"Y  c #846935",
"T  c #8C6B35",
"R  c #8D6632",
"E  c #976E33",
"W  c #9C6E33",
"Q  c #936F39",
"!  c #8D7337",
"~  c #94743B",
"^  c #9C773D",
"/  c #A06728",
"(  c #AF7028",
")  c #A57335",
"_  c #AA7636",
"`  c #AB7839",
"'  c #B17D3B",
"]  c #C67608",
"[  c #897D44",
"{  c #886846",
"}  c #2E807F",
"|  c #32807D",
" . c #76855F",
".. c #99883D",
"X. c #AB843D",
"o. c #A3813B",
"O. c #B7813F",
"+. c #B9823E",
"@. c #DE920E",
"#. c #DE9914",
"$. c #E8990D",
"%. c #E6A313",
"&. c #EBA216",
"*. c #FBAC12",
"=. c #F5A914",
"-. c #CD8D38",
";. c #D39734",
":. c #F4AF29",
">. c #998347",
",. c #978856",
"<. c #AD8343",
"1. c #A88647",
"2. c #B68846",
"3. c #AC924C",
"4. c #B3974E",
"5. c #A58D54",
"6. c #B79E5A",
"7. c #B99F59",
"8. c #B89853",
"9. c #BDA35D",
"0. c #BDA156",
"q. c #929360",
"w. c #A89E61",
"e. c #98A97B",
"r. c #A5A16E",
"t. c #BBA664",
"y. c #B3A362",
"u. c #C28D47",
"i. c #C6944D",
"p. c #CA964D",
"a. c #CC984E",
"s. c #C29851",
"d. c #C1A45D",
"f. c #CAA25B",
"g. c #D7A95D",
"h. c #DCAC5F",
"j. c #C6AB61",
"k. c #C9AE63",
"l. c #C7A560",
"z. c #D8AD62",
"x. c #CCB165",
"c. c #C9B16B",
"v. c #D0B86C",
"b. c #D1BC76",
"n. c #E4AF60",
"m. c #E6B363",
"M. c #ECBA69",
"N. c #E8B565",
"B. c #F1BB63",
"V. c #D5C37C",
"C. c #F6C26D",
"Z. c #F9C46D",
"A. c #F8C470",
"S. c #2E8584",
"D. c #2F8C8C",
"F. c #328584",
"G. c #328887",
"H. c #328D8C",
"J. c #3C8A85",
"K. c #32908F",
"L. c #308F90",
"P. c #339190",
"I. c #428C84",
"U. c #43938B",
"Y. c #4E998C",
"T. c #48978D",
"R. c #58988A",
"E. c #6C9D89",
"W. c #6AA58E",
"Q. c #73A78C",
"!. c #85AF8D",
"~. c #9CB68B",
"^. c #C5BE9F",
"/. c #B6C48F",
"(. c #C7C083",
"). c #DCCD83",
"_. c #C4CB90",
"`. c #F8D08E",
"'. c #E1C89C",
"]. c #C6C1A2",
"[. c #CBCABE",
"{. c #F0E1C7",
"}. c None",
/* pixels */
"}.}.}.}.}.}.}.}.}.}.}.}.}.}.}.}.}.}.}.}.}.}.}.}.}.}.}.}.}.}.}.}.",
"}.}.}.}.}.}.}.}.}.}.}.}.G.G.}.}.}.}.}.}.}.}.}.}.}.}.}.}.}.}.}.}.",
"}.}.}.}.}.}.}.}.}.}.}.}.H.H.K.H.H.}.}.}.}.}.}.}.}.}.}.}.}.}.}.}.",
"}.}.}.}.}.}.}.}.}.}.}.z H.H.H.H.H.H.H.}.}.}.}.}.}.}.}.}.}.}.}.}.",
"}.}.}.}.}.}.}.}.}.}.}.z H.P.L.P.H.H.H.G.F.}.}.}.}.}.}.}.}.}.}.}.",
"}.}.}.}.}.}.}.}.}.}.}.} H.H.W.R.K.P.P.G.H.G.G.}.}.}.}.}.}.}.}.}.",
"}.}.}.}.}.}.}.}.}.}.}.p S.T._.Q.K.P.P.P.H.G.H.P.H.G.}.}.}.}.}.}.",
"}.}.}.}.}.}.}.}.}.}.4 5 a U.!.U.H.Y.U.P.H.H.H.H.P.K.H.}.}.}.}.}.",
"}.}.}.}.}.}.}.}.}.w w w q a S.P.Y./.W.H.S.G.H.P.P.K.P.K.} }.}.}.",
"}.}.}.}.}.}.}.}.j w w w 0 w i g R.~.I.h h P.P.P.P.P.H.G.h }.}.}.",
"}.}.}.}.}.}.}.}.k w w w q q w w t s i t F.k j j l h a i w 6 }.}.",
"}.}.}.}.}.}.}.H.h w w w w q q w q w q h S.w q 4 q w q q w 0 }.}.",
"}.}.}.}.}.}.G.P.a q w w w w q w w q i z i 4 w w w 4 q q q 0 }.}.",
"}.}.}.}.}.}.H.P.p w w w w w w q q q i i w w w q w w p g f i }.}.",
"}.}.}.}.}.G.P.H.a w w w w w w w q q w w w w 4 i h S.P.P.P.G.}.}.",
"}.}.}.}.}.K.P.K.a w w w t w w w q w w w w w f G.P.P.P.P.P.P.G.}.",
"}.}.}.}.G.P.P.P.h w w w t w w w w w w w i k H.P.L.L.P.P.H.G.}.}.",
"}.}.}.}.K.P.K.P.} w w w w w w w 4 4 4 a G.K.J.J.Y.E.S M }.}.}.}.",
"}.}.}.F.K.K.P.P.S.w w w q q w 0 8 9 y Z m C M { ^.].- 2.}.}.}.}.",
"}.}.}.G.P.K.K.K.j w w w w 0 q 8 < Y Y Q T T T 2.{.[.* s.}.}.}.}.",
"}.}.}.H.P.P.P.H.p q w w w w 4 c < Y T 2.' { 2.z.`.'.,.z.}.}.}.}.",
"}.}.}.H.P.P.P.} w w w w w w w e 7 < Q ' 1.T 2.g.M.A.M.f.}.}.}.}.",
"}.}.}.H.K.P.H.a w w w w w w w w 2 }.}.[ ^ T ~ s.M.M.}.}.}.}.}.}.",
"}.}.}.H.H.H.k w w w w t w w w q }.}.}.: _ a.W ~ }.}.}.}.}.}.}.}.",
"}.}.}.J.S.p t w w w t w w w w }.}.}.R ` +.-.#.}.}.}.}.}.}.}.}.}.",
"}.}.(.e.z q q w w 4 w w 4 w c }.}.}.z.B.M.B.:.&.}.}.}.}.}.}.}.}.",
"}.}.).v.y.m u w 4 4 3 4 w m ,.}.}.}.u.u.a.M.:.&.}.}.}.}.}.}.}.}.",
"}.y.7.3.j.x.y.q. .m  . .q.t.0.}.}.}._ ) ) ;.&.#.}.}.}.}.}.}.}.}.",
"}.}.}.}.j.x.x.x.x.k.k.k.x.x.t.}.}.}.' / K ] P H }.}.}.}.}.}.}.}.",
"}.}.}.}.9.x.x.x.x.x.0.4.d.k.9.}.}.}._ F G G G J }.}.}.}.}.}.}.}.",
"}.}.}.}.0.x.x.x.x.d.}.}...2.3.}.}.I _ U L ( 2.l.j.}.}.}.}.}.}.}.",
"}.}.}.}.}.k.x.j.6.}.}.}.}.}.}.}.) ' ' t.b.V.V.c.5.}.}.}.}.}.}.}.",
"}.}.}.}.}.9.9.}.}.}.}.}.}.}.}.}.' m.n.' 2.>.E L K }.}.}.}.}.}.}.",
"}.}.}.}.}.}.}.}.}.}.}.}.}.}.}.}.' M.N.F D x : $.%.}.}.}.}.}.}.}.",
"}.}.}.}.}.}.}.}.}.}.}.}.}.}.}.}.' N.N.C 7 4 > =.=.}.}.}.}.}.}.}.",
"}.}.}.}.}.}.}.}.}.}.}.}.}.}.}.8.p.n.C.z.m 3 , =.*.#.}.}.}.}.}.}.",
"}.}.}.}.}.}.}.}.}.}.}.}.}.}.}.h.B.M.A.A.q.3 b %.*.%.}.}.}.}.}.}.",
"}.}.}.}.}.}.}.}.}.}.}.}.}.}.}.2.p.n.m.i.b 3 e N ..}.}.}.}.}.}.}.",
"}.}.}.}.}.}.}.}.}.}.}.}.}.}.}.}._ 2.O.< q w w j j }.}.}.}.}.}.}.",
"}.}.}.}.}.}.}.}.}.}.}.}.}.}.}.}.}.W Q v 4 w h K.}.}.}.}.}.}.}.}.",
"}.}.}.}.}.}.}.}.}.}.}.}.}.}.}.}.}.x r 0 4 g H.J.I.G.}.}.}.}.}.}.",
"}.}.}.}.}.}.}.}.}.}.}.}.}.}.}.}.}.}.1 c n A V V E.k p }.}.}.}.}.",
"}.}.}.}.}.}.}.}.}.}.}.}.}.}.}.}.}.}.}.I ` ) _ 5.r.y 1 }.}.}.}.}.",
"}.}.}.}.}.}.}.}.}.}.}.}.}.}.}.}.}.}.}.I _ E ) 5.,.& + }.}.}.}.}.",
"}.}.}.}.}.}.}.}.}.}.}.}.}.}.}.}.}.}.}.E _ o.[ b #   }.}.}.}.}.}.",
"}.}.}.}.}.}.}.}.}.}.}.}.}.}.}.}.}.}.; ) X.>.r 4 2 @ }.}.}.}.}.}.",
"}.}.}.}.}.}.}.}.}.}.}.}.}.}.}.}.}.}.o = X.~ 8 4 w % }.}.}.}.}.}.",
"}.}.}.}.}.}.}.}.}.}.}.}.}.}.}.}.}.}.  $ ! = 9 5 6 + }.}.}.}.}.}.",
"}.}.}.}.}.}.}.}.}.}.}.}.}.}.}.}.}.}.}.}.X . O + O }.}.}.}.}.}.}.",
"}.}.}.}.}.}.}.}.}.}.}.}.}.}.}.}.}.}.}.}.}.}.}.}.}.}.}.}.}.}.}.}."
};
