/* XPM */
static char *result[] = {
/* columns rows colors chars-per-pixel */
"34 50 170 2 ",
"   c #151C1A",
".  c #1C231E",
"X  c #212722",
"o  c #252922",
"O  c #3C3828",
"+  c #4D432B",
"@  c #5E492A",
"#  c #4E513A",
"$  c #5E5939",
"%  c #71552F",
"&  c #725730",
"*  c #7E5D31",
"=  c #1D5755",
"-  c #1E5857",
";  c #1E5B5A",
":  c #22514F",
">  c #355B4F",
",  c #3B594B",
"<  c #305349",
"1  c #215653",
"2  c #225956",
"3  c #2D5A53",
"4  c #205B59",
"5  c #295B56",
"6  c #23605E",
"7  c #2C615B",
"8  c #3B695D",
"9  c #396354",
"0  c #1F6362",
"q  c #236563",
"w  c #286A67",
"e  c #336C64",
"r  c #28706C",
"t  c #267373",
"y  c #2A7674",
"u  c #2B7977",
"i  c #2C7C7B",
"p  c #277A7A",
"a  c #347B75",
"s  c #317F7C",
"d  c #4C5D46",
"f  c #455B49",
"g  c #5D664A",
"h  c #4A6C59",
"j  c #576D52",
"k  c #6B6642",
"l  c #676C47",
"z  c #776C45",
"x  c #777741",
"c  c #616F52",
"v  c #667B5E",
"b  c #787C56",
"n  c #477566",
"m  c #557D68",
"M  c #647E62",
"N  c #815F32",
"B  c #8B602C",
"V  c #94672F",
"C  c #846032",
"Z  c #876A39",
"A  c #9D6D33",
"S  c #926933",
"D  c #99733B",
"F  c #A06B2D",
"G  c #A57336",
"H  c #AB7636",
"J  c #AE7837",
"K  c #AA7738",
"L  c #A37B3D",
"P  c #AE7838",
"I  c #B17937",
"U  c #B27B38",
"Y  c #857B47",
"T  c #997B44",
"R  c #2D817F",
"E  c #32817F",
"W  c #7E8159",
"Q  c #488577",
"!  c #588874",
"~  c #648D73",
"^  c #7FA07F",
"/  c #BA833D",
"(  c #8E8348",
")  c #948548",
"_  c #A68B45",
"`  c #AB8E46",
"'  c #B48642",
"]  c #BB8A45",
"[  c #AE9147",
"{  c #AE9249",
"}  c #B19347",
"|  c #B1944A",
" . c #B5994E",
".. c #BA9049",
"X. c #BD9551",
"o. c #B59B52",
"O. c #B99D52",
"+. c #BDA55E",
"@. c #BBA158",
"#. c #849C77",
"$. c #8FA67E",
"%. c #98A97B",
"&. c #BEA660",
"*. c #A2AC7A",
"=. c #C58C42",
"-. c #C59446",
";. c #D09747",
":. c #D29C4A",
">. c #C39C55",
",. c #DAA34E",
"<. c #C2A55B",
"1. c #CBA259",
"2. c #C6AB5F",
"3. c #DCA755",
"4. c #E3A851",
"5. c #ECB259",
"6. c #F5B758",
"7. c #F7B859",
"8. c #C3AB62",
"9. c #CBAE63",
"0. c #CDB265",
"q. c #C9B66B",
"w. c #D1B96E",
"e. c #C1BA7B",
"r. c #D3BF75",
"t. c #E2B364",
"y. c #EAB564",
"u. c #EDB866",
"i. c #D5C27A",
"p. c #D7C77E",
"a. c #2E8584",
"s. c #2C8A8B",
"d. c #328684",
"f. c #328987",
"g. c #388B86",
"h. c #328C8B",
"j. c #33908F",
"k. c #3E948F",
"l. c #339291",
"z. c #459188",
"x. c #4D968B",
"c. c #549B8D",
"v. c #5A9D8C",
"b. c #639F8B",
"n. c #68A28D",
"m. c #73A78B",
"M. c #7BA88B",
"N. c #83AE8D",
"B. c #8CAA85",
"V. c #8EB38D",
"C. c #9CB98F",
"Z. c #A4BC8E",
"A. c #A8B888",
"S. c #A4B383",
"D. c #B1BC88",
"F. c #BFC48A",
"G. c #AFC290",
"H. c #C0C58B",
"J. c #C9CA8D",
"K. c #D1C683",
"L. c #D9CB84",
"P. c #DFD58E",
"I. c #C9CC90",
"U. c #D8D491",
"Y. c #E2D58C",
"T. c #E5DC94",
"R. c #E8DE95",
"E. c #E9E097",
"W. c #ECE399",
"Q. c None",
/* pixels */
"Q.Q.Q.Q.Q.Q.Q.Q.Q.Q.Q.Q.Q.Q.Q.Q.Q.Q.Q.Q.Q.Q.Q.Q.Q.Q.Q.Q.Q.Q.Q.Q.Q.Q.",
"Q.Q.Q.Q.Q.Q.Q.Q.Q.Q.Q.Q.Q.Q.Q.Q.E s Q.Q.Q.Q.Q.Q.Q.Q.Q.Q.Q.Q.Q.Q.Q.Q.",
"Q.Q.Q.Q.Q.Q.Q.Q.Q.Q.Q.Q.Q.d.h.l.l.l.h.h.Q.Q.Q.Q.Q.Q.Q.Q.Q.Q.Q.Q.Q.Q.",
"Q.Q.Q.d.h.h.d.d.Q.Q.Q.Q.h.l.h.l.l.l.l.l.j.f.Q.Q.Q.Q.Q.f.d.h.f.Q.Q.Q.",
"Q.Q.Q.f.l.l.l.l.l.h.s h.l.l.l.l.l.l.l.l.l.l.h.Q.f.h.l.l.j.l.h.Q.Q.Q.",
"Q.Q.Q.f.x.N.k.l.l.l.h.j.h.j.l.l.l.l.l.l.l.h.h.h.l.l.l.l.n.v.h.Q.Q.Q.",
"Q.Q.Q.t m.G.k.l.l.l.l.l.u a.l.l.l.l.l.l.h.u h.l.l.l.j.s.V.C.s Q.Q.Q.",
"Q.Q.Q.2 ! M.j.x.m.l.l.i 4 u l.l.l.l.l.l.d.q u l.l.c.v.h.b.B.w Q.Q.Q.",
"Q.Q.Q.Q.4 s d.V.C.f.y 6 4 i l.l.l.l.l.l.d.6 4 u s.M.Z.g.d.e 1 Q.Q.Q.",
"Q.Q.Q.Q.2 ; w $.~ 0 4 ; 4 d.l.l.l.l.l.l.h.q ; 4 w ! S.a q 2 Q.Q.Q.Q.",
"Q.Q.Q.Q.1 2 2 7 5 = 4 4 w h.l.l.l.l.l.l.l.y 4 4 ; 5 e 4 ; 2 Q.Q.Q.Q.",
"Q.Q.Q.Q.Q.4 ; 4 ; 4 4 4 s l.l.l.l.l.l.j.j.d.4 4 ; ; 4 4 4 1 Q.Q.Q.Q.",
"Q.Q.Q.Q.Q.1 4 4 4 4 4 q h.l.l.l.l.l.k.l.l.j.r 4 4 4 4 4 2 Q.Q.Q.Q.Q.",
"Q.Q.Q.Q.Q.Q.= 2 2 4 4 u l.l.l.l.l.l.l.l.l.l.i 4 4 - 4 2 Q.Q.Q.Q.Q.Q.",
"Q.Q.Q.Q.Q.Q.Q.1 2 ; 4 h.l.l.l.l.l.l.l.l.l.l.d.6 2 - 1 Q.Q.Q.Q.Q.Q.Q.",
"Q.Q.Q.Q.Q.Q.Q.2 2 2 q h.l.l.l.l.k.l.l.l.l.l.a.4 2 2 1 Q.Q.Q.Q.Q.Q.Q.",
"Q.Q.Q.Q.Q.Q.Q.: 2 - q h.l.l.l.l.l.l.l.l.l.l.a.6 = 1 Q.Q.Q.Q.Q.Q.Q.Q.",
"Q.Q.Q.Q.Q.Q.Q.Q.< 5 q h.l.l.l.l.l.l.l.l.j.l.a.q 5 Q.Q.Q.Q.Q.Q.Q.Q.Q.",
"Q.Q.Q.Q.Q.Q.Q.Q.Q., q h.l.l.l.l.l.l.l.l.j.l.a.6 > Q.Q.Q.Q.Q.Q.Q.Q.Q.",
"Q.Q.Q.Q.Q.Q.Q.Q.Q.5 q i a.h.s.l.l.l.l.l.j.j.a.6 1 Q.Q.Q.Q.Q.Q.Q.Q.Q.",
"Q.Q.Q.Q.Q.Q.Q.Q.Q.2 q y a.a.f.z.x.z.g.a.s.s.R 6 2 Q.Q.Q.Q.Q.Q.Q.Q.Q.",
"Q.Q.Q.Q.Q.Q.Q.Q.Q.2 y p Q ^ A.F.I.I.D.B.! r y q 1 Q.Q.Q.Q.Q.Q.Q.Q.Q.",
"Q.Q.Q.Q.Q.Q.Q.Q.Q.= e #.J.W.W.W.W.W.W.W.U.%.n = 4 Q.Q.Q.Q.Q.Q.Q.Q.Q.",
"Q.Q.Q.Q.Q.Q.Q.Q.Q.8 *.r.p.E.W.W.W.R.Y.R.P.T.D.m - Q.Q.Q.Q.Q.Q.Q.Q.Q.",
"Q.Q.Q.Q.Q.Q.Q.Q.Q.e.r.9.8.r.R.W.W.T.i.i.@.q.R.F.h Q.Q.Q.Q.Q.Q.Q.Q.Q.",
"Q.Q.Q.Q.Q.Q.Q.Q.Q.w.0.2.O. .&.L.E.K.&. .[ [ 2.T.K.Q.Q.Q.Q.Q.Q.Q.Q.Q.",
"Q.Q.Q.Q.Q.Q.Q.Q.&.0.<. .[ [ [  .&.o.[ [ [ { [ q.T.Q.Q.Q.Q.Q.Q.Q.Q.Q.",
"Q.Q.Q.Q.Q.Q.Q.Q.8.<.{ [ [ [ [ [ { ` [ { [ [ [  .K.Q.Q.Q.Q.Q.Q.Q.Q.Q.",
"Q.Q.Q.Q.Q.Q.Q.Q.&. .` [ [ [ [ [ { { [ | { _ [ } 8.Q.Q.Q.Q.Q.Q.Q.Q.Q.",
"Q.Q.Q.Q.Q.Q.Q.Q.{ _ 1.@. .| [ | { { | [ { [ >.1.Q.Q.Q.Q.Q.Q.Q.Q.Q.Q.",
"Q.Q.Q.Q.Q.Q.Q.Q.Q.Q.t.9.O.[ | [ [ [ [ | [ { ..t.Q.Q.Q.Q.Q.Q.Q.Q.Q.Q.",
"Q.Q.Q.Q.Q.Q.Q.Q.Q.@.5.<. .[ [ } } } | [ { [ ' y.Q.Q.Q.Q.Q.Q.Q.Q.Q.Q.",
"Q.Q.Q.Q.Q.Q.Q.Q.Q.1.t.X. .{ } ) x Y _ { { _ / y.X.Q.Q.Q.Q.Q.Q.Q.Q.Q.",
"Q.Q.Q.Q.Q.Q.Q.Q.-.5.y.] | ` Y 9 ; 2 j ( _ L ] y.3.Q.Q.Q.Q.Q.Q.Q.Q.Q.",
"Q.Q.Q.Q.Q.Q.Q.Q.,.7.4./ L l 4 ; ; ; ; 2 k G =.6.6.,.Q.Q.Q.Q.Q.Q.Q.Q.",
"Q.Q.Q.Q.Q.Q.Q.Q.-.;./ P A > ; 2 4 4 2 = d G U =.,.Q.Q.Q.Q.Q.Q.Q.Q.Q.",
"Q.Q.Q.Q.Q.Q.Q.Q.Q.B G P S > - - 2 2 - ; d A I K V Q.Q.Q.Q.Q.Q.Q.Q.Q.",
"Q.Q.Q.Q.Q.Q.Q.Q.Q.Q.v z d 4 2 ; = 2 4 ; 3 k Y Z Q.Q.Q.Q.Q.Q.Q.Q.Q.Q.",
"Q.Q.Q.Q.Q.Q.Q.Q.Q.Q.j.R 0 4 ; 4 2 = 4 ; 4 y g.E Q.Q.Q.Q.Q.Q.Q.Q.Q.Q.",
"Q.Q.Q.Q.Q.Q.Q.Q.Q.Q.h.j.p ; ; 4 1 2 ; ; t h.h.Q.Q.Q.Q.Q.Q.Q.Q.Q.Q.Q.",
"Q.Q.Q.Q.Q.Q.Q.Q.Q.Q.Q.n ~ l d Q.Q.Q., g M m Q.Q.Q.Q.Q.Q.Q.Q.Q.Q.Q.Q.",
"Q.Q.Q.Q.Q.Q.Q.Q.Q.Q.Q.Q.H I F Q.Q.Q.Q.U U F Q.Q.Q.Q.Q.Q.Q.Q.Q.Q.Q.Q.",
"Q.Q.Q.Q.Q.Q.Q.Q.Q.Q.Q.$ K P Q.Q.Q.Q.Q.G U C Q.Q.Q.Q.Q.Q.Q.Q.Q.Q.Q.Q.",
"Q.Q.Q.Q.Q.Q.Q.Q.Q.Q.3 g K P Z Q.Q.Q.Q.G I z 3 Q.Q.Q.Q.Q.Q.Q.Q.Q.Q.Q.",
"Q.Q.Q.Q.Q.Q.Q.Q.Q.j W D P J D Q.Q.Q.S P K G b b Q.Q.Q.Q.Q.Q.Q.Q.Q.Q.",
"Q.Q.Q.Q.Q.Q.Q.Q.Q.# T I I U K Q.Q.Q.S U U U L k Q.Q.Q.Q.Q.Q.Q.Q.Q.Q.",
"Q.Q.Q.Q.Q.Q.Q.Q.Q.. O & C N % Q.Q.Q.@ N N * + o Q.Q.Q.Q.Q.Q.Q.Q.Q.Q.",
"Q.Q.Q.Q.Q.Q.Q.Q.Q.Q.  X o o X Q.Q.Q.. X o o . Q.Q.Q.Q.Q.Q.Q.Q.Q.Q.Q.",
"Q.Q.Q.Q.Q.Q.Q.Q.Q.Q.Q.Q.Q.Q.Q.Q.Q.Q.Q.Q.Q.Q.Q.Q.Q.Q.Q.Q.Q.Q.Q.Q.Q.Q.",
"Q.Q.Q.Q.Q.Q.Q.Q.Q.Q.Q.Q.Q.Q.Q.Q.Q.Q.Q.Q.Q.Q.Q.Q.Q.Q.Q.Q.Q.Q.Q.Q.Q.Q."
};
