/* XPM */
static char *result[] = {
/* columns rows colors chars-per-pixel */
"50 45 256 2 ",
"   c #070517",
".  c #0D101B",
"X  c #050827",
"o  c #041529",
"O  c #01023A",
"+  c #060938",
"@  c #0B1B3A",
"#  c #101C3E",
"$  c #133136",
"%  c #464036",
"&  c #030B44",
"*  c #030748",
"=  c #051747",
"-  c #020757",
";  c #071656",
":  c #111A51",
">  c #092447",
",  c #072458",
"<  c #0E3152",
"1  c #343B4A",
"2  c #031766",
"3  c #0A1D75",
"4  c #020967",
"5  c #04236A",
"6  c #052B6D",
"7  c #082666",
"8  c #083A6C",
"9  c #163568",
"0  c #062775",
"q  c #073779",
"w  c #112E6F",
"e  c #473E42",
"r  c #094358",
"t  c #114959",
"y  c #344B4C",
"u  c #054668",
"i  c #154466",
"p  c #03437C",
"a  c #084A79",
"s  c #175B70",
"d  c #2B5268",
"f  c #146C74",
"g  c #287264",
"h  c #4C4C51",
"j  c #4D645B",
"k  c #4E7373",
"l  c #677270",
"z  c #566065",
"x  c #76837F",
"c  c #053A85",
"v  c #1A3F8A",
"b  c #074987",
"n  c #07578B",
"m  c #175889",
"M  c #064992",
"N  c #0C5C9B",
"B  c #055996",
"V  c #124F88",
"C  c #07678D",
"Z  c #0B6394",
"A  c #0C639C",
"S  c #076898",
"D  c #176899",
"F  c #06749B",
"G  c #15779A",
"H  c #197289",
"J  c #2D748C",
"K  c #0569A3",
"L  c #1768A2",
"P  c #0778A8",
"I  c #1479A5",
"U  c #0E7AB1",
"Y  c #2C77A9",
"T  c #5D7F86",
"R  c #1A859B",
"E  c #0A849D",
"W  c #2F8C93",
"Q  c #30A59A",
"!  c #0686A8",
"~  c #1383A3",
"^  c #178AA7",
"/  c #0894AB",
"(  c #1C96AA",
")  c #098DB3",
"_  c #118AB7",
"`  c #0898B7",
"'  c #1A9AB4",
"]  c #2988A8",
"[  c #2696A8",
"{  c #369AA7",
"}  c #3489B8",
"|  c #269CB5",
" . c #3B98B5",
".. c #1AA8BA",
"X. c #1EA3A9",
"o. c #2AA8A8",
"O. c #33A9AA",
"+. c #27A6B5",
"@. c #35A6B5",
"#. c #28B3B8",
"$. c #3AB5B8",
"%. c #5B8588",
"&. c #4B9996",
"*. c #5198AB",
"=. c #669AA9",
"-. c #48A9B7",
";. c #50ACAF",
":. c #67A5AB",
">. c #79B6B8",
",. c #64AFB8",
"<. c #63A09D",
"1. c #0699C3",
"2. c #07A5C3",
"3. c #1AB4C7",
"4. c #17B3CD",
"5. c #2AACC3",
"6. c #27B6C8",
"7. c #39B6C8",
"8. c #31B4D5",
"9. c #29BBF6",
"0. c #2EBEF4",
"q. c #2CA4DB",
"w. c #4BA7C8",
"e. c #49B8C5",
"r. c #57B8C7",
"t. c #4CA4D1",
"y. c #52B8D4",
"u. c #74B3D5",
"i. c #6EB1C8",
"p. c #47BBE9",
"a. c #4197C8",
"s. c #2ACCD8",
"d. c #39C6DB",
"f. c #31CCD2",
"g. c #1EC3F4",
"h. c #2AC9E7",
"j. c #33CBEF",
"k. c #37C5E6",
"l. c #38D5E9",
"z. c #2DC5F4",
"x. c #2BCBF5",
"c. c #2DCCF9",
"v. c #27C8F6",
"b. c #32CBF3",
"n. c #37C9F6",
"m. c #2DD4F9",
"M. c #2BD8F6",
"N. c #33D4F4",
"B. c #3CD4F5",
"V. c #34DBF5",
"C. c #3BDBF4",
"Z. c #34D2F9",
"A. c #3BDBF9",
"S. c #37D9FA",
"D. c #2DD7E6",
"F. c #3BE5EA",
"G. c #3DE3F5",
"H. c #35E4F9",
"J. c #39E7F7",
"K. c #32E9F1",
"L. c #1BC8D6",
"P. c #54C5CC",
"I. c #43D8DA",
"U. c #51CCD5",
"Y. c #76C4CA",
"T. c #7BD5D9",
"R. c #71CCD1",
"E. c #55EBD9",
"W. c #4FE4DE",
"Q. c #44DCEE",
"!. c #48D7E8",
"~. c #56DAE7",
"^. c #45CCF5",
"/. c #55CCF5",
"(. c #43D4F4",
"). c #49DAF5",
"_. c #57D8F5",
"`. c #4DCBE6",
"'. c #62DBE9",
"]. c #65DAF5",
"[. c #74DAF3",
"{. c #75D0EF",
"}. c #49E6E8",
"|. c #58E8EA",
" X c #57F4E7",
".X c #42E4F4",
"XX c #47E8F7",
"oX c #57E8F6",
"OX c #4DF2F8",
"+X c #67E9E9",
"@X c #78E8EA",
"#X c #78F3ED",
"$X c #66E7F3",
"%X c #77E7F5",
"&X c #69F6F5",
"*X c #73F6F4",
"=X c #6AF5E9",
"-X c #8EB3B5",
";X c #B1BDBA",
":X c #87C7BF",
">X c #85B8DC",
",X c #8DBEE1",
"<X c #87DAD9",
"1X c #94D9D6",
"2X c #8FC9CE",
"3X c #ACD4D2",
"4X c #8AD6E6",
"5X c #95DAE7",
"6X c #8BD2ED",
"7X c #A3DCE4",
"8X c #A7DCE9",
"9X c #B5DBE5",
"0X c #84E5EB",
"qX c #84E9EB",
"wX c #88E8E7",
"eX c #95E8EA",
"rX c #89F4EC",
"tX c #96F6EC",
"yX c #84E9F5",
"uX c #97EBF1",
"iX c #83F4F3",
"pX c #8BF4F2",
"aX c #97F3F2",
"sX c #ABEAEB",
"dX c #B8E9EC",
"fX c #A4F5EC",
"gX c #B8F2ED",
"hX c #A9EAF7",
"jX c #BBECF2",
"kX c #A4F5F3",
"lX c #B8F5F4",
"zX c #96E2D9",
"xX c #C5DEE0",
"cX c #C5E8EC",
"vX c #D6F7ED",
"bX c #C9EAF4",
"nX c #C4F4F3",
"mX c #CAF7F5",
"MX c #DCF5F4",
"NX c #D4FAF3",
"BX c #D9F8F7",
"VX c #D4EDF0",
"CX c #E6EDF3",
"ZX c #E2F5F6",
"AX c #EBF6F5",
"SX c #E3FAF4",
"DX c #ECFAF5",
"FX c #E5F5F9",
"GX c #EBFBFA",
"HX c #E6F7FB",
"JX c #F3FAF4",
"KX c #F3F7FA",
"LX c #F3FAFA",
"PX c #F8F9F9",
"IX c #E3F3EF",
"UX c None",
/* pixels */
"UXUXUXUXUXUXUXUXUXUXUXUXUXUXUXUXUXUXUXUXUXUXUX    X . UXUXUXUXUXUXUXUXUXUXUXUXUXUXUXUXUXUXUXUXUXUXUX",
"UXUXUXUXUXUXUXUXUXUXUXUXUXUXUXUXUXUXUXUXUXUXo   . . . u UXUXUXUXUXUXUXUXUXUXUXUXUXUXUXUXUXUXUXUXUXUX",
"UXUXUXUXUXUXUXUXUXUXUXUXUXUXUXUXUXUXUXUXUXC t g f t $ m P B B UXUXUXUXUXUXUXUXUXUXUXUXUXUXUXUXUXUXUX",
"UXUXUXUXUXUXUXUXUXUXUXUXUXUXUXUXL N A K ! / R <X1X;.f F K Z n B N UXUXUXUXUXUXUXUXUXUXUXUXUXUXUXUXUX",
"UXUXUXUXUXUXUXUXUXUXUXUXUXUXb n A B K K U 3.o.eXgXwX$.R F S b M N a V UXUXUXUXUXUXUXUXUXUXUXUXUXUXUX",
"UXUXUXUXUXUXUXUXUXUXUXUX0 c D Z K K P ! _ 3.o.<XfXgXY.X.! S B B N C m q 6 UXUXUXUXUXUXUXUXUXUXUXUXUX",
"UXUXUXUXUXUXUXUXUXUXb c B K P I I ^ ! / ^ #.Q <.1XcX:.( E F S K G S K K B q UXUXUXUXUXUXUXUXUXUXUXUX",
"UXUXUXUXUXUXUXUXUXL S K P ! ) ^ ^ ' | o.[ #.&.j l %.k { ( ^ ! ! G G P P K A Z UXUXUXUXUXUXUXUXUXUXUX",
"UXUXUXUXUXUXUXUXUXD I ^ U ^ ' | [ | @.( o.O.&.y y 1 k O.o.X.X.( R ! ! P P F ! m UXUXUXUXUXUXUXUXUXUX",
"UXUXUXUXUXUXUXUXI G I [ ' X...+.+.+.O.-.,.R.zX:Xi.-X:XR.P.$.o.+.[ ' / ! E I D G I UXUXUXUXUXUXUXUXUX",
"UXUXUXUXUXUXUX8.4.3.[ { #...#.#.$.P.1XsXlXmXvXSXNXBXHXNXlXuXT.r.o...+.| [ H ^ 4.f.e.UXUXUXUXUXUXUXUX",
"UXUXUXUXUXUX#.eX4X|.s.{ &.#.7.U.eXcXmXBXZXZXNXvXGXGXLXLXKXHXmXsXR.e.e.$.W ] L.|.pXyX8.UXUXUXUXUXUXUX",
"UXUXUXUXUXA 7.uX*XiXI.l z <.zXlXMXGXFXVX7XwXiXrXtXfXtXgXBXPXJXZXmXdXT.<.k J I.rXpXrX7.UXUXUXUXUXUXUX",
"UXUXUXUXUXM 1.~.pXwX:.h h ;XBXJXPXBXdXwX@X X XW.W.!.I.|.|.uXbXNXFXvXdX-Xj g $.rXrXD.1.V UXUXUXUXUXUX",
"UXUXUXUXw m P 4.D.*.l e x IXJXJXBXcXuXpXiX|.!.k.h.k.k.!.d.8.y.uXfXZXDXgXl y g $.s.4.D D w UXUXUXUXUX",
"UXUXUX: 8 a H I [ l % j xXJXJXvXkXaXrX%XoX!.`.!.).Q.Q.}.}.D.q.p.+X#XNXvX3Xy $ d ] G m b 6 ; UXUXUXUX",
"UXUXUX7 q c N _ [ %.l 3XFXKXgX#X=X+X@XqX@X].Q.B.n.N.A.)..XXX`.8.k..XtXGXBX-Xj J [ ~ B M q ; UXUXUXUX",
"UXUXw w w p S [ o.Q ;XDXJXnX X}.E.%X5XwX%X^.9.9.n.^.n.c.B.(._./.j.D.%XlXDXcX>.Q O.[ ~ C b 0 ; UXUXUX",
"UXUX< 7 w b I +.O.,.FXPXAXwXI.|.'.{.6X%X/.0./.[.hXhXyX(.N.Q.|.[.].Q.(.=XvXZXjXi.e.5.| ! K M 7 UXUXUX",
"UXUX9 a p n ^ 5.$.sXDXPXnX|. X}.0.].hX%X`.{.hXyX]./.[.[._.F.oX[.{._.l.}.tXSXMX7XP.P.f.5.) D 8 UXUXUX",
"UXUX@ # $ u W { ,.VXJXJXaX|.E.}.^.6XaXeX[.].^.m.g.v.^.$X_.(..X_././..XG.$XvXJX9X:.-.e.-.( f r UXUXUX",
"UXo   . @ f &.:.-XZXGXBXtX~.E.l./.uXuXyX/.x.c.x.m.h.j.C.l./.(.Q.n.n.Q.l. XfXDX3XT :.i.-.o.R r = UXUX",
"UXo   X < f <.>.,XAXGXjXiX$XE.x._.*XyX$Xn.N.x.J.J.J..XK.V.(.B.C.Z.z.j.j.}.eXMX3Xk <.,.-.O.R u = UXUX",
"UXo   o < H <.-X3XKXGXkX+X`.W.j.).*X%X).M.c.N.J.G.C..XJ.m.B.B.m.Z.c.0.x.F.qXZXcX%.*.:.-.{ H t @ UXUX",
"UX< : # r R O.Y.cXPXKXuX|.p.!.z..X&X$XZ.N.v.m.S.(.~.Q.c.c.(.B.v.H.m.0.z.}.@XFXCX>.;.7.5.^ f i 9 UXUX",
"UX: > 8 ~ `.}.+XNXLXKXkX~.d.I.z.}.=X$XS.z.g.V.z./.].n.0.j._.z.c.H.Z.z.j.}.wXBXFX#XI.F.}.3.I a 9 UXUX",
"UX& & a ..yXkX*XnXJXPXsX!.d.d.j.).#XqXS.z.g.N.z./.%X/.^.|.].n.J.H.c.z.n.}.wXZXHXiX XiX#Xs.) b 5 UXUX",
"UX+ * b | yXkX=XhXJXPXlX!.d.k.C.).*XpXN.j.9.n.c.n._.]._.]._.).XXA.Z.N.XX}.tXFXBX*X=XfXiXs./ a 7 UXUX",
"UX: = 8 I '.|.D.0XDXPXmXU.d.k.C.S.oX$Xb.Z.v.v.z.9.n.!./._._.oXXXA.A.H.OX XfXAXMX+XK. X%X6.U V 9 UXUX",
"UX< > > a I ..6.Y.AXPXNX@X!.h.V.H.n.!.h.v.m.v.z.n.(.XXXX.XoXXXm.Z.J.J.OX#XmXDXcXR.8.s.6.~ n 8 9 UXUX",
"UXUXO * 6 Z ..d.4XMXLXSXtX}.s.M.H.v._.(.9.c.m.m.c.Z.H.H.K.J.V.v.S.J.J.&XpXSXMXbXR.s.s...! M 2 & UXUX",
"UXUXX O 5 S ` d.U.gXDXLXmX'.d.j.N.M.j.oXB.c.m.H.H.J.J.J.K.C.n.C.J.J.OX*XlXGXNX5Xe.f.4.2./ B 7 * UXUX",
"UXUXUX+ , S 2.s.d.<XFXPXHX4Xp.k.D.M.v.N.}.A.m.V.H.V.H.A.Z.n.).OXJ.OXOXaXGXGXmXi.6.3.2.2.` F 0 & UXUX",
"UXUXX O , S 1.4.s.P.cXGXJXbX[.D.h.N.M.v.C.XX.XA.C.A.B.^.^.J.J.OXJ.OXyXBXPXBX7X{ ' ' ` 2.` ! p ; UXUX",
"UXUX+ + ; B ) 2.6.5.2XBXDXJXlX@Xd.l.V.l.x.b.Q.).).XXXX).XXXXXXXXXXaXBXPXBXbX:.^ F F ! ` / ! S , = UX",
"UXUX+ + = p P ` 3.5.w.jXIXDXDXvXeX}.l.Q.G.N.B.Q.).)..XXXJ.J.XX+XtXFXPXSXmXbX-.G V Z ) ` ! ! F < o UX",
"UXUXUXX + , M ! / ! ] u.3XSXJXAXNXkX@XE.|.|.~.~.~.|.~.~.~.+XqXnXAXPXGXNX7X<X} b 6 p F / ! E C < X UX",
"UXUXUX  X * 2 b B b m i d zXNXGXFXBXMXnXeXwXwXqXqXwXqXwXwXwXjXVXMXBXmXuX .5.] q 5 5 b S P F C a , UX",
"UXUXUXUXUXUXUX@ = @ : d =.3XdXcX9X9X8X9XdXcXnXnXnXnXjXdXbXbXxXdXsXjXhX5XU.7.L 0 2 * ; 6 q a C F a , ",
"UXUXUXUXUXUXUXUX> 9 s *.i.i.u.u.u.u.u.4X4X4X5X5XeX5X4X4X6X6X,X>X>X6X5X8X8X2Xw.Y c c 4 4 2 6 C F a , ",
"UXUXUXUXUXUX* 4 3 v m J J m  .e.e.y.U.y.r.t.t.t.t.t.a.} } } } } Y Y  .w.w.t.w.a.U N c 3 - - 6 p 6 = ",
"UXUXUXUXUXUX* * ; ; ; 2 3 c b n Z I L m L D L L D D D Z L N n M M b B N A P _ 1.1.) S c 4 - - ; ; UX",
"UXUXUXUXUXUX+ * & * * - - - - 4 2 2 3 3 w w 0 7 = ; 2 7 6 5 5 5 7 2 2 2 0 M P 1.1.1.U c 4 - * * UXUX",
"UXUXUXUXUXUXUXUXUXUXUXUXUXUXUXUXUXUXUXUXUXUXUXUXUXUXUX& & O O O O O O O * 2 b P ! U S 6 * * UXUXUXUX",
"UXUXUXUXUXUXUXUXUXUXUXUXUXUXUXUXUXUXUXUXUXUXUXUXUXUXUXUXUXUXUXUXUXUXUXUXUX+ 5 q q q q UXUXUXUXUXUXUX"
};
