/* XPM */
static char *result[] = {
/* columns rows colors chars-per-pixel */
"50 43 36 1 ",
"  c #FF641A",
". c #FF601C",
"X c #FF601D",
"o c #4AAE53",
"O c #FF9202",
"+ c #FF9302",
"@ c #FF9401",
"# c #FF9700",
"$ c #FF9800",
"% c #FF9900",
"& c #FFB404",
"* c #FFB705",
"= c #FFB905",
"- c #FFC005",
"; c #FFC006",
": c #FFC106",
"> c #FFC107",
", c #FFD11B",
"< c #CCDB38",
"1 c #FFD520",
"2 c #FFD924",
"3 c #FFD925",
"4 c #EAE43A",
"5 c #EBE53A",
"6 c #ECE53A",
"7 c #F6E83A",
"8 c #FAE93A",
"9 c #FFEB3B",
"0 c #FFEB3C",
"q c #FFEC3C",
"w c #82C04A",
"e c #8BC349",
"r c #8AC24A",
"t c #8BC34A",
"y c #0A9980",
"u c None",
/* pixels */
"uuuuuuuuuuuuuuuuuuuuuuuuuuuuuuuuuuuuuuuuuuuuuuuuuu",
"uuuuuuuuuuuuuuuuuuuuuuuuuuuuuuuuuuuuuuuuuuuuuuuuuu",
"uuuuuuuuuuuuuuuuuuuuuu<<u<<uu<uu<<<<uuuuuuutuuuuuu",
"uuuuuuuuuuuuuuuuuuuuu766u66u666u64u58uuuuutttuuuuu",
"uuuuuuuuuuuuuuuuuuuuu9qquqquqqquqquq0uuuutttttuuuu",
"uuuuuuuuuuuuuuuuuu1,uu33u33u333u33u32uuutttttttuuu",
"uuuuuuuuuuuuuuuuu>;;uu::u::u:::u::u;-uutttttttttuu",
"uuuuuuuuuuuuuuuuuu>uuu**u**u&**u*=;>uutreeeeeeeruu",
"uuuuuuuuuuuuuuuuuuuuuu%%u%%$$%$u%%uuuuuuuwwwwwuuuu",
"uuuuuuuuuuuuuuuuuuuuuuOOu#+OO@uuOOuuuuuuuooooouuuu",
"uuuuuuuuuuuuuuuuuuuuuuXXuu X.uuuXXuuuuuuuyyyyyuuuu",
"uuuuuuuuuuuuuuuuuuuuuuuuuuuuuuuuuuuuuuuuuuuuuuuuuu",
"uuuuuuuuuuuuuuuuuuuuuuuuuuuuuuuuuuuuuuuuuuuuuuuuuu",
"uuuuuuuuuuuuuuuuuuuuuuuuuuuuuuuuuuuuuuuuuuuuuuuuuu",
"uuuuuuuuuuuuuuuuuuuuuuuuuuuuuuuuuuuuuuuuuuuuuuuuuu",
"uuuuuuuuuuuuuuuuuuuuuuuuuuuuuuuuuuuuuuuuuuuuuuuuuu",
"uuuuuuuuuuuuuuuuuuuuuuuuuuuuuuuuuuuuuuuuuuuuuuuuuu",
"uuuuuuuuuuuuuuuuuuuuuuuuuuuuuuuuuuuuuuuuuuuuuuuuuu",
"uuuuuuuuuuuuuuuuuuuuuuuuuuuuuuuuuuuuuuuuuuuuuuuuuu",
"uuuuuuuuuuuuuuuuuuuuuuuuuuuuuuuuuuuuuuuuuuuuuuuuuu",
"uuuuuuuuuuuuuuuuuuuuuuuuuuuuuuuuuuuuuuuuuuuuuuuuuu",
"uuuuuuuuuuuuuuuuuuuuuuuuuuuuuuuuuuuuuuuuuuuuuuuuuu",
"uuuuuuuuuuuuuuuuuuuuuuuuuuuuuuuuuuuuuuuuuuuuuuuuuu",
"uuuuuuuuuuuuuuuuuuuuuuuuuuuuuuuuuuuuuuuuuuuuuuuuuu",
"uuuuuuuuuuuuuuuuuuuuuuuuuuuuuuuuuuuuuuuuuuuuuuuuuu",
"uuuuuuuuuuuuuuuuuuuuuuuuuuuuuuuuuuuuuuuuuuuuuuuuuu",
"uuuuuuuuuuuuuuuuuuuuuuuuuuuuuuuuuuuuuuuuuuuuuuuuuu",
"uuuuuuuuuuuuuuuuuuuuuuuuuuuuuuuuuuuuuuuuuuuuuuuuuu",
"uuuuuuuuuuuuuuuuuuuuuuuuuuuuuuuuuuuuuuuuuuuuuuuuuu",
"uuuuuuuuuuuuuuuuuuuuuuuuuuuuuuuuuuuuuuuuuuuuuuuuuu",
"uuuuuuuuuuuuuuuuuuuuuuuuuuuuuuuuuuuuuuuuuuuuuuuuuu",
"uuuuuuuuuuuuuuuuuuuuuuuuuuuuuuuuuuuuuuuuuuuuuuuuuu",
"uuuuuuuuuuuuuuuuuuuuuuuuuuuuuuuuuuuuuuuuuuuuuuuuuu",
"uuuuuuuuuuuuuuuuuuuuuuuuuuuuuuuuuuuuuuuuuuuuuuuuuu",
"uuuuuuuuuuuuuuuuuuuuuuuuuuuuuuuuuuuuuuuuuuuuuuuuuu",
"uuuuuuuuuuuuuuuuuuuuuuuuuuuuuuuuuuuuuuuuuuuuuuuuuu",
"uuuuuuuuuuuuuuuuuuuuuuuuuuuuuuuuuuuuuuuuuuuuuuuuuu",
"uuuuuuuuuuuuuuuuuuuuuuuuuuuuuuuuuuuuuuuuuuuuuuuuuu",
"uuuuuuuuuuuuuuuuuuuuuuuuuuuuuuuuuuuuuuuuuuuuuuuuuu",
"uuuuuuuuuuuuuuuuuuuuuuuuuuuuuuuuuuuuuuuuuuuuuuuuuu",
"uuuuuuuuuuuuuuuuuuuuuuuuuuuuuuuuuuuuuuuuuuuuuuuuuu",
"uuuuuuuuuuuuuuuuuuuuuuuuuuuuuuuuuuuuuuuuuuuuuuuuuu",
"uuuuuuuuuuuuuuuuuuuuuuuuuuuuuuuuuuuuuuuuuuuuuuuuuu"
};
